<?xml version="1.0" encoding="iso-8859-1"?>
<!-- Generator: Adobe Illustrator 23.0.2, SVG Export Plug-In . SVG Version: 6.00 Build 0)  -->
<svg version="1.1" id="Layer_1" xmlns="http://www.w3.org/2000/svg" xmlns:xlink="http://www.w3.org/1999/xlink" x="0px" y="0px"
	 width="800px" height="158px" viewBox="0 0 800 158" enable-background="new 0 0 800 158" xml:space="preserve">
<g>
	<g>
		<g>
			<g>
				
					<circle fill="#FFFFFF" stroke="#000001" stroke-width="3" stroke-linecap="round" stroke-linejoin="round" cx="496.4" cy="33.8" r="11"/>
				<path fill="#FFFFFF" stroke="#000001" stroke-width="3" stroke-linecap="round" stroke-linejoin="round" d="M502.8,24.9
					l-11.4-8.2c-2.2-1.6-5.4-1.1-7,1.1s-1.1,5.4,1.1,7L497,33"/>
				<path fill="#FFFFFF" stroke="#000001" stroke-width="3" stroke-linecap="round" stroke-linejoin="round" d="M493.5,37.9l-9.8-7
					c-1.3-1-1.7-2.8-0.7-4.2c1-1.3,2.8-1.7,4.2-0.7l9.8,7"/>
				<path fill="#FFFFFF" stroke="#000001" stroke-width="3" stroke-linecap="round" stroke-linejoin="round" d="M490,42.8l-6.5-4.7
					c-1.3-1-1.7-2.8-0.7-4.2s2.8-1.7,4.2-0.7l6.5,4.7"/>
			</g>
			<g>
				
					<circle fill="#FFFFFF" stroke="#000001" stroke-width="3" stroke-linecap="round" stroke-linejoin="round" cx="541.2" cy="34.8" r="11"/>
				<path fill="#FFFFFF" stroke="#000001" stroke-width="3" stroke-linecap="round" stroke-linejoin="round" d="M534.8,25.9
					l11.4-8.2c2.2-1.6,5.4-1.1,7,1.1c1.6,2.2,1.1,5.4-1.1,7L540.7,34"/>
				<path fill="#FFFFFF" stroke="#000001" stroke-width="3" stroke-linecap="round" stroke-linejoin="round" d="M544.2,38.9l9.8-7
					c1.3-1,1.7-2.8,0.7-4.2c-1-1.3-2.8-1.7-4.2-0.7l-9.8,7"/>
				<path fill="#FFFFFF" stroke="#000001" stroke-width="3" stroke-linecap="round" stroke-linejoin="round" d="M547.7,43.8l6.5-4.7
					c1.3-1,1.7-2.8,0.7-4.2c-1-1.3-2.8-1.7-4.2-0.7l-6.5,4.7"/>
			</g>
			<ellipse fill="#000001" stroke="#000001" stroke-width="3" stroke-linecap="round" cx="518" cy="126" rx="21.5" ry="3.1"/>
			
				<rect x="501.5" y="36.5" fill="#FFFFFF" stroke="#000001" stroke-width="3" stroke-linecap="round" stroke-linejoin="round" width="34" height="36"/>
			<g>
				
					<circle fill="#000001" stroke="#000001" stroke-width="3" stroke-linecap="round" stroke-linejoin="round" cx="509.5" cy="38.5" r="9"/>
				
					<circle fill="#000001" stroke="#000001" stroke-width="3" stroke-linecap="round" stroke-linejoin="round" cx="527.5" cy="38.5" r="9"/>
				
					<circle fill="#FFFFFF" stroke="#000001" stroke-width="3" stroke-linecap="round" stroke-linejoin="round" cx="509.5" cy="36.5" r="9"/>
				<circle fill="#000001" stroke="#000001" stroke-width="3" cx="507.5" cy="38.5" r="1"/>
				
					<circle fill="#FFFFFF" stroke="#000001" stroke-width="3" stroke-linecap="round" stroke-linejoin="round" cx="527.5" cy="36.5" r="9"/>
				<circle fill="#000001" stroke="#000001" stroke-width="3" cx="525.5" cy="38.5" r="1"/>
			</g>
			<g>
				<path fill="#000001" d="M508.7,63.6v-4.2h2.8v2.8l0,0h2.8l0,0V51h2.8v12.6c0,0.8-0.6,1.4-1.4,1.4h-5.6
					C509.3,65,508.7,64.3,508.7,63.6z"/>
				<path fill="#000001" d="M519.9,62.2h5.6l0,0v-2.9l0,0h-4.2c-0.8,0-1.4-0.6-1.4-1.4v-5.4c0-0.8,0.6-1.4,1.4-1.4h7v2.8h-5.6l0,0
					v2.9l0,0h4.2c0.8,0,1.4,0.6,1.4,1.4v5.4c0,0.8-0.6,1.4-1.4,1.4h-7V62.2z"/>
			</g>
		</g>
		<g>
			<g>
				<path fill="#FFFFFF" stroke="#000001" stroke-width="3" stroke-linecap="round" stroke-linejoin="round" d="M278.5,51.5v-18
					c0-15.5,12.5-28,28-28h0c15.5,0,28,12.5,28,28v18H278.5z"/>
				
					<rect x="272.5" y="46.5" fill="#FFFFFF" stroke="#000001" stroke-width="3" stroke-linecap="round" stroke-linejoin="round" width="68" height="15"/>
				<g>
					<path fill="#000001" d="M291.1,37.6V26.4c0-0.8,0.6-1.4,1.4-1.4l7,0v2.8h-5.6l0,0v8.4l0,0h5.6V39h-7
						C291.7,39,291.1,38.3,291.1,37.6z"/>
					<path fill="#000001" d="M302.3,36.2h5.6l0,0v-2.9l0,0h-4.2c-0.8,0-1.4-0.6-1.4-1.4v-5.4c0-0.8,0.6-1.4,1.4-1.4h7v2.8h-5.6l0,0
						v2.9l0,0h4.2c0.8,0,1.4,0.6,1.4,1.4v5.4c0,0.8-0.6,1.4-1.4,1.4h-7V36.2z"/>
					<path fill="#000001" d="M313.5,36.2h5.6l0,0v-2.9l0,0h-4.2c-0.8,0-1.4-0.6-1.4-1.4v-5.4c0-0.8,0.6-1.4,1.4-1.4h7v2.8h-5.6l0,0
						v2.9l0,0h4.2c0.8,0,1.4,0.6,1.4,1.4v5.4c0,0.8-0.6,1.4-1.4,1.4h-7V36.2z"/>
				</g>
			</g>
			<g>
				<path fill="none" stroke="#000001" stroke-width="3" stroke-linecap="round" stroke-linejoin="round" d="M269.1,112.9
					c-3.5-3.5-3.5-9.2,0-12.7c3.5-3.5,9.2-3.5,12.7,0"/>
				<ellipse fill="#000001" stroke="#000001" stroke-width="3" stroke-linecap="round" cx="306" cy="126" rx="21.5" ry="3.1"/>
				<polyline fill="none" stroke="#000001" stroke-width="3" stroke-linecap="round" stroke-linejoin="round" points="314.5,111.5 
					319.5,122.5 322.5,119.5 				"/>
				
					<line fill="none" stroke="#000001" stroke-width="3" stroke-linecap="round" stroke-linejoin="round" x1="335.5" y1="88.5" x2="353.5" y2="81.5"/>
				
					<rect x="274.5" y="61.5" fill="#FFFFFF" stroke="#000001" stroke-width="3" stroke-linecap="round" stroke-linejoin="round" width="64" height="51"/>
				
					<rect x="274.5" y="61.5" fill="#000001" stroke="#000001" stroke-width="3" stroke-linecap="round" stroke-linejoin="round" width="64" height="2"/>
				<g>
					
						<circle fill="#000001" stroke="#000001" stroke-width="3" stroke-linecap="round" stroke-linejoin="round" cx="297.5" cy="63.5" r="9"/>
					
						<circle fill="#000001" stroke="#000001" stroke-width="3" stroke-linecap="round" stroke-linejoin="round" cx="315.5" cy="63.5" r="9"/>
					
						<circle fill="#FFFFFF" stroke="#000001" stroke-width="3" stroke-linecap="round" stroke-linejoin="round" cx="297.5" cy="61.5" r="9"/>
					<circle fill="#000001" stroke="#000001" stroke-width="3" cx="299.5" cy="60.5" r="1"/>
					
						<circle fill="#FFFFFF" stroke="#000001" stroke-width="3" stroke-linecap="round" stroke-linejoin="round" cx="315.5" cy="61.5" r="9"/>
					<circle fill="#000001" stroke="#000001" stroke-width="3" cx="317.5" cy="60.5" r="1"/>
				</g>
				<g>
					<path fill="#000001" d="M292.5,83v14h-2.8v-5.8h-4.2V97h-2.8V83h2.8v5.8h4.2V83H292.5z"/>
					<path fill="#000001" d="M303.7,85.8h-2.8V97h-2.8V85.8h-2.8V83h8.4V85.8z"/>
					<path fill="#000001" d="M306.5,83h4.4l1.7,6.8h0.3l1.7-6.8h4.4v14h-2.8V86h-0.2l-1.7,6.4h-3.1l-1.7-6.4h-0.2v11h-2.8V83z"/>
					<path fill="#000001" d="M321.9,83h2.8v11.2h5.6V97h-8.4V83z"/>
				</g>
				<path fill="none" stroke="#000001" stroke-width="3" stroke-linecap="round" stroke-linejoin="round" d="M302.5,112.5
					c3,5-5,11-5,11"/>
			</g>
		</g>
		<g>
			<ellipse fill="#000001" stroke="#000001" stroke-width="3" stroke-linecap="round" cx="625" cy="141" rx="74.5" ry="3.1"/>
			<path fill="none" stroke="#000001" stroke-width="3" stroke-linecap="round" stroke-linejoin="round" d="M573,122
				c9.4,0,17,7.6,17,17"/>
			<path fill="none" stroke="#000001" stroke-width="3" stroke-linecap="round" stroke-linejoin="round" d="M575,122
				c0,9.4-7.6,17-17,17"/>
			<path fill="none" stroke="#000001" stroke-width="3" stroke-linecap="round" stroke-linejoin="round" d="M646,122
				c9.4,0,17,7.6,17,17"/>
			<path fill="none" stroke="#000001" stroke-width="3" stroke-linecap="round" stroke-linejoin="round" d="M648,122
				c0,9.4-7.6,17-17,17"/>
			<polygon fill="#FFFFFF" stroke="#000001" stroke-width="3" stroke-linecap="round" stroke-linejoin="round" points="699.5,125.5 
				549.5,125.5 549.5,60.5 615.3,60.5 615.5,81.5 699.5,81.5 			"/>
			<g>
				<path fill="#000001" d="M569.1,97h8.4c0.8,0,1.4,0.6,1.4,1.4v7c0,0.8-0.6,1.4-1.4,1.4h-5.6v4.2h-2.8V97z M576.1,104.4
					L576.1,104.4l0-4.6l0,0h-4.2v4.6H576.1z"/>
				<path fill="#000001" d="M584.5,99.8v3h4.2v2.4h-4.2v3h5.6v2.8h-8.4V97h8.4v2.8H584.5z"/>
				<path fill="#000001" d="M592.9,97h8.4c0.8,0,1.4,0.6,1.4,1.4v6l-2,0.9v0.3l2,0.9v4.6h-2.8v-4.4l0,0h-4.2v4.4h-2.8V97z
					 M599.9,104.2L599.9,104.2l0-4.4l0,0h-4.2v4.5H599.9z"/>
				<path fill="#000001" d="M608.3,99.8v4.3h4.2v2.6h-4.2v4.3h-2.8V97h8.4v2.8H608.3z"/>
				<path fill="#000001" d="M619.5,99.8v3h4.2v2.4h-4.2v3h5.6v2.8h-8.4V97h8.4v2.8H619.5z"/>
				<path fill="#000001" d="M627.9,109.6V98.4c0-0.8,0.6-1.4,1.4-1.4l7,0v2.8h-5.6l0,0v8.4l0,0h5.6v2.8h-7
					C628.5,111,627.9,110.3,627.9,109.6z"/>
				<path fill="#000001" d="M647.5,99.8h-2.8V111h-2.8V99.8h-2.8V97h8.4V99.8z"/>
				<path fill="#000001" d="M650.3,97h2.8v14h-2.8V97z"/>
				<path fill="#000001" d="M655.9,109.6V98.4c0-0.8,0.6-1.4,1.4-1.4h7c0.8,0,1.4,0.6,1.4,1.4v11.2c0,0.8-0.6,1.4-1.4,1.4h-7
					C656.5,111,655.9,110.3,655.9,109.6z M662.9,108.2L662.9,108.2l0-8.4l0,0h-4.2l0,0v8.4l0,0H662.9z"/>
				<path fill="#000001" d="M668.5,97h3.3l3.3,8.9h0.2V97h2.6v14h-3.3l-3.3-8.9h-0.2v8.9h-2.6V97z"/>
			</g>
			<g>
				
					<circle fill="#000001" stroke="#000001" stroke-width="3" stroke-linecap="round" stroke-linejoin="round" cx="645" cy="83.5" r="9"/>
				
					<circle fill="#000001" stroke="#000001" stroke-width="3" stroke-linecap="round" stroke-linejoin="round" cx="663" cy="83.5" r="9"/>
				
					<circle fill="#FFFFFF" stroke="#000001" stroke-width="3" stroke-linecap="round" stroke-linejoin="round" cx="645" cy="81.5" r="9"/>
				
					<circle fill="#FFFFFF" stroke="#000001" stroke-width="3" stroke-linecap="round" stroke-linejoin="round" cx="663" cy="81.5" r="9"/>
				<circle fill="#000001" stroke="#000001" stroke-width="3" cx="639" cy="81.5" r="1"/>
				<circle fill="#000001" stroke="#000001" stroke-width="3" cx="657" cy="81.5" r="1"/>
			</g>
		</g>
		<g>
			<g>
				
					<circle fill="#000001" stroke="#000001" stroke-width="3" stroke-linecap="round" stroke-linejoin="round" cx="275.5" cy="116.5" r="9"/>
				
					<circle fill="#FFFFFF" stroke="#000001" stroke-width="3" stroke-linecap="round" stroke-linejoin="round" cx="275.5" cy="114.5" r="9"/>
				<circle fill="#000001" stroke="#000001" stroke-width="3" cx="278.5" cy="114.5" r="1"/>
			</g>
			<ellipse fill="#000001" stroke="#000001" stroke-width="3" stroke-linecap="round" cx="187" cy="151" rx="81" ry="3.1"/>
			<g>
				<path fill="none" stroke="#000000" stroke-width="38" stroke-linecap="round" stroke-linejoin="round" d="M122,133h35v-17.5
					c0-9.7,7.8-17.5,17.5-17.5h0c9.7,0,17.5,7.8,17.5,17.5l0.1,17.5H261"/>
				<path fill="none" stroke="#FFFFFF" stroke-width="32" stroke-linecap="round" stroke-linejoin="round" d="M122,133h35v-17.5
					c0-9.7,7.8-17.5,17.5-17.5h0c9.7,0,17.5,7.8,17.5,17.5l0.1,17.5H261"/>
			</g>
			<g>
				<path fill="#000001" d="M193,128.4c0-0.8,0.6-1.4,1.4-1.4h4.2c0.4,0,0.7,0.2,1,0.4l3.2,3.2c0.3,0.3,0.4,0.6,0.4,1v4.8
					c0,0.4-0.1,0.7-0.4,1l-3.2,3.2c-0.3,0.3-0.6,0.4-1,0.4h-4.2c-0.8,0-1.4-0.6-1.4-1.4V128.4z M195.8,138.2h2.2l2.4-2.4v-3.6
					l-2.4-2.4h-2.2l0,0L195.8,138.2L195.8,138.2z"/>
				<path fill="#000001" d="M208.8,129.8v3h4.2v2.4h-4.2v3h5.6v2.8H206v-14h8.4v2.8H208.8z"/>
				<path fill="#000001" d="M217.2,138.2h5.6l0,0v-2.9l0,0h-4.2c-0.8,0-1.4-0.6-1.4-1.4v-5.4c0-0.8,0.6-1.4,1.4-1.4h7v2.8H220l0,0
					v2.9l0,0h4.2c0.8,0,1.4,0.6,1.4,1.4v5.4c0,0.8-0.6,1.4-1.4,1.4h-7V138.2z"/>
				<path fill="#000001" d="M228.4,127h2.8v14h-2.8V127z"/>
				<path fill="#000001" d="M234,139.6v-11.2c0-0.8,0.6-1.4,1.4-1.4l7.7,0v2.8h-6.3l0,0v8.4l0,0h4.2l0,0v-1v0l-2.3-2.3l1.9-1.9
					l2.8,2.8c0.3,0.3,0.4,0.6,0.4,1v2.8c0,0.8-0.6,1.4-1.4,1.4h-7C234.6,141,234,140.3,234,139.6z"/>
				<path fill="#000001" d="M246.6,127h3.3l3.3,8.9h0.2V127h2.6v14h-3.3l-3.3-8.9h-0.2v8.9h-2.6V127z"/>
			</g>
			<g>
				
					<circle fill="#000001" stroke="#000001" stroke-width="3" stroke-linecap="round" stroke-linejoin="round" cx="262.5" cy="116.5" r="9"/>
				
					<circle fill="#FFFFFF" stroke="#000001" stroke-width="3" stroke-linecap="round" stroke-linejoin="round" cx="262.5" cy="114.5" r="9"/>
				<circle fill="#000001" stroke="#000001" stroke-width="3" cx="260.5" cy="114.5" r="1"/>
			</g>
			<g>
				<path fill="#000001" d="M133.5,128.4V141h-2.8v-4.5h-4.2v4.5h-2.8v-12.6c0-0.8,0.6-1.4,1.4-1.4h7
					C132.9,127,133.5,127.6,133.5,128.4z M130.7,134.2v-4.4l0,0h-4.2l0,0v4.4H130.7z"/>
				<path fill="#000001" d="M136.3,127h8.4c0.8,0,1.4,0.6,1.4,1.4v6l-2,0.9v0.3l2,0.9v4.6h-2.8v-4.4l0,0h-4.2v4.4h-2.8V127z
					 M143.3,134.2L143.3,134.2l0-4.4l0,0h-4.2v4.5H143.3z"/>
				<path fill="#000001" d="M157.3,129.8h-2.8V141h-2.8v-11.2h-2.8V127h8.4V129.8z"/>
			</g>
		</g>
		<g>
			<ellipse fill="#000001" stroke="#000001" stroke-width="3" stroke-linecap="round" cx="483" cy="146" rx="50.5" ry="5.5"/>
			<path fill="#FFFFFF" stroke="#000001" stroke-width="3" stroke-linecap="round" stroke-linejoin="round" d="M529.5,146.5h-94v0
				c0-19.9,16.1-36,36-36h22C513.4,110.5,529.5,126.6,529.5,146.5L529.5,146.5z"/>
			<g>
				
					<circle fill="#000001" stroke="#000001" stroke-width="3" stroke-linecap="round" stroke-linejoin="round" cx="473.5" cy="112.5" r="9"/>
				
					<circle fill="#000001" stroke="#000001" stroke-width="3" stroke-linecap="round" stroke-linejoin="round" cx="491.5" cy="112.5" r="9"/>
				
					<circle fill="#FFFFFF" stroke="#000001" stroke-width="3" stroke-linecap="round" stroke-linejoin="round" cx="473.5" cy="110.5" r="9"/>
				<circle fill="#000001" stroke="#000001" stroke-width="3" cx="471.5" cy="112.5" r="1"/>
				
					<circle fill="#FFFFFF" stroke="#000001" stroke-width="3" stroke-linecap="round" stroke-linejoin="round" cx="491.5" cy="110.5" r="9"/>
				<circle fill="#000001" stroke="#000001" stroke-width="3" cx="489.5" cy="112.5" r="1"/>
			</g>
			<g>
				<path fill="#000001" d="M451.7,136.2h5.6l0,0v-2.9l0,0h-4.2c-0.8,0-1.4-0.6-1.4-1.4v-5.4c0-0.8,0.6-1.4,1.4-1.4h7v2.8h-5.6l0,0
					v2.9l0,0h4.2c0.8,0,1.4,0.6,1.4,1.4v5.4c0,0.8-0.6,1.4-1.4,1.4h-7V136.2z"/>
				<path fill="#000001" d="M472.7,126.4V139h-2.8v-4.5h-4.2v4.5h-2.8v-12.6c0-0.8,0.6-1.4,1.4-1.4h7
					C472.1,125,472.7,125.6,472.7,126.4z M469.9,132.2v-4.4l0,0h-4.2l0,0v4.4H469.9z"/>
				<path fill="#000001" d="M475.5,125h3.3l3.3,8.9h0.2V125h2.6v14h-3.3l-3.3-8.9h-0.2v8.9h-2.6V125z"/>
				<path fill="#000001" d="M487.7,125h2.8v14h-2.8V125z"/>
				<path fill="#000001" d="M501.7,127.8h-2.8V139h-2.8v-11.2h-2.8V125h8.4V127.8z"/>
				<path fill="#000001" d="M507.5,134.8h-1.7l-2-9.9h2.8l1.3,7.7l2,0l1.3-7.7h2.8l-2,9.9h-1.7v4.1h-2.8V134.8z"/>
			</g>
		</g>
	</g>
	<g>
		<g>
			<ellipse fill="#000001" stroke="#000001" stroke-width="3" stroke-linecap="round" cx="383.1" cy="146" rx="38.5" ry="5.5"/>
			<g>
				<path fill="none" stroke="#000000" stroke-width="18" d="M386,118c4,6,9,18,11,23"/>
				<g>
					<path fill="none" stroke="#000000" stroke-width="20" stroke-linecap="round" stroke-linejoin="round" d="M392.2,99
						c4.6,10.7,9.5,15.7,18.2,11.8"/>
					<path fill="none" stroke="#FFFFFF" stroke-width="14" stroke-linecap="round" stroke-linejoin="round" d="M392.2,99
						c4.6,10.7,9.5,15.7,18.2,11.8"/>
				</g>
				<path fill="#000001" d="M406,104c-3,5,0,17,0,17s0,1-10-3C395,106,397,103,406,104z"/>
				<circle fill="#FFFFFF" stroke="#000001" stroke-width="3" stroke-linecap="round" cx="381.6" cy="107.5" r="18.4"/>
				<path fill="#000001" d="M385,101c0,11-8,17-8,17l-7-7C370,111,381,98,385,101z"/>
				<path fill="#000001" stroke="#000001" stroke-width="3" stroke-linecap="round" stroke-linejoin="round" d="M364.8,100.2
					c-4,9.3,0.3,20.1,9.6,24.1c9.3,4,20.1-0.3,24.1-9.6C383.7,116.1,372.3,111.6,364.8,100.2z"/>
				<g>
					<path fill="none" stroke="#000000" stroke-width="20" stroke-linecap="round" stroke-linejoin="round" d="M375.6,100.4
						c-8.5-1-10.2,6.8-15.6,7.6"/>
					<path fill="none" stroke="#FFFFFF" stroke-width="14" stroke-linecap="round" stroke-linejoin="round" d="M375.6,100.4
						c-8.5-1-10.2,6.8-15.6,7.6"/>
				</g>
				<path fill="#FFFFFF" stroke="#000001" stroke-width="3" d="M382.9,95c2.5,4.9,0.5,10.8-4.3,13.2c-4.9,2.5-13.7-15.1-8.9-17.6
					C374.5,88.2,380.4,90.2,382.9,95z"/>
				<path fill="#000001" d="M375.2,89.7c4.3,15.8,21.3,22.3,24.3,20.6c3-1.7-3-9.7-3-9.7S384,86.8,375.2,89.7z"/>
				<g>
					<circle fill="#FFFFFF" stroke="#000001" stroke-width="3" cx="398.1" cy="83" r="21"/>
					
						<ellipse transform="matrix(0.9519 -0.3065 0.3065 0.9519 -4.2473 118.951)" fill="#000001" stroke="#000001" stroke-width="3" stroke-linecap="round" cx="376.6" cy="73" rx="4" ry="5.5"/>
					
						<ellipse transform="matrix(0.7071 -0.7071 0.7071 0.7071 71.1469 291.2333)" fill="#000001" stroke="#000001" stroke-width="3" stroke-linecap="round" cx="387.1" cy="59.7" rx="13.3" ry="6.2"/>
					
						<ellipse transform="matrix(0.9519 -0.3065 0.3065 0.9519 2.0602 126.5896)" fill="#000001" stroke="#000001" stroke-width="3" stroke-linecap="round" cx="404.1" cy="56.7" rx="13.3" ry="6.2"/>
					
						<ellipse transform="matrix(0.34 -0.9404 0.9404 0.34 202.5566 418.0781)" fill="#000001" stroke="#000001" stroke-width="3" stroke-linecap="round" cx="399.1" cy="64.7" rx="6.2" ry="13.3"/>
					
						<ellipse transform="matrix(0.9968 -8.011166e-02 8.011166e-02 0.9968 -4.0248 33.1503)" fill="#000001" stroke="#000001" stroke-width="3" stroke-linecap="round" cx="411.1" cy="66.7" rx="13.3" ry="6.2"/>
					<path fill="#FFFFFF" stroke="#000001" stroke-width="3" stroke-linecap="round" d="M380.8,90.9c-1,0.4-2,0.6-3.2,0.6
						c-4.4,0-8-3.6-8-8s3.6-8,8-8c1.1,0,2.2,0.2,3.1,0.6"/>
					
						<ellipse transform="matrix(0.9519 -0.3065 0.3065 0.9519 -4.9261 120.6279)" fill="#000001" stroke="#000001" stroke-width="3" stroke-linecap="round" cx="381.6" cy="76" rx="4" ry="5.5"/>
					<path fill="none" stroke="#000001" stroke-width="3" stroke-linecap="round" d="M392.2,75.7c1-1.8,3.2-2.4,5-1.5"/>
					<path fill="none" stroke="#000001" stroke-width="3" stroke-linecap="round" d="M411.1,75.7c-1-1.8-3.2-2.4-5-1.5"/>
					<path fill="none" stroke="#000001" stroke-width="3" stroke-linecap="round" d="M393.5,80.4c1.2-1.2,3.1-1.2,4.2,0"/>
					<path fill="none" stroke="#000001" stroke-width="3" stroke-linecap="round" d="M405.5,80.4c1.2-1.2,3.1-1.2,4.2,0"/>
					<path fill="none" stroke="#000001" stroke-width="3" stroke-linecap="round" d="M403.8,87.4c-1.2,1.2-3.1,1.2-4.2,0"/>
					<circle fill="none" stroke="#000001" stroke-width="3" stroke-linecap="round" cx="390.6" cy="86.5" r="1"/>
					<circle fill="none" stroke="#000001" stroke-width="3" stroke-linecap="round" cx="412.6" cy="86.5" r="1"/>
				</g>
				<path fill="none" stroke="#000000" stroke-width="18" d="M376,118c0,12-3,13-13,13"/>
				<polyline fill="none" stroke="#000000" stroke-width="3" stroke-linecap="round" points="389,144 399,140 407,136 				"/>
				<polyline fill="none" stroke="#000000" stroke-width="3" stroke-linecap="round" points="363.5,123.5 362.3,137.7 362.5,141.2 
									"/>
			</g>
		</g>
		<rect x="307" y="22" fill="none" width="160" height="160"/>
	</g>
</g>
<g>
</g>
<g>
</g>
<g>
</g>
<g>
</g>
<g>
</g>
</svg>
