<?xml version="1.0" encoding="utf-8"?>
<!-- Generator: Adobe Illustrator 23.0.2, SVG Export Plug-In . SVG Version: 6.00 Build 0)  -->
<svg version="1.1" id="Layer_1" xmlns="http://www.w3.org/2000/svg" xmlns:xlink="http://www.w3.org/1999/xlink" x="0px" y="0px"
	 width="1280px" height="160px" viewBox="0 0 1280 160" style="enable-background:new 0 0 1280 160;" xml:space="preserve">
<style type="text/css">
	.st0{fill:#000001;stroke:#000001;stroke-width:3;stroke-linecap:round;}
	.st1{fill:none;stroke:#000000;stroke-width:18;}
	.st2{fill:none;stroke:#000000;stroke-width:20;stroke-linecap:round;stroke-linejoin:round;}
	.st3{fill:none;stroke:#BCBCBC;stroke-width:14;stroke-linecap:round;stroke-linejoin:round;}
	.st4{fill:#000001;}
	.st5{fill:#BCBCBC;stroke:#000001;stroke-width:3;stroke-linecap:round;}
	.st6{fill:#000001;stroke:#000001;stroke-width:3;stroke-linecap:round;stroke-linejoin:round;}
	.st7{fill:#BCBCBC;stroke:#000001;stroke-width:3;}
	.st8{fill:none;stroke:#000001;stroke-width:3;stroke-linecap:round;}
	.st9{fill:none;stroke:#000000;stroke-width:3;stroke-linecap:round;}
	.st10{fill:none;}
</style>
<title>Vector Smart Object</title>
<g>
	<g>
		<ellipse class="st0" cx="76.1" cy="124" rx="27.6" ry="5.5"/>
		<g>
			<path class="st1" d="M79,96c4,6,9,18,11,23"/>
			<g>
				<path class="st2" d="M85.2,77c4.6,10.7,9.5,15.7,18.2,11.8"/>
				<path class="st3" d="M85.2,77c4.6,10.7,9.5,15.7,18.2,11.8"/>
			</g>
			<path class="st4" d="M99,82c-3,5,0,17,0,17s0,1-10-3C88,84,90,81,99,82z"/>
			<circle class="st5" cx="74.6" cy="85.5" r="18.4"/>
			<path class="st4" d="M78,79c0,6.6-3,12.8-8,17l-7-7C63,89,74,76,78,79z"/>
			<path class="st6" d="M57.8,78.2c-4,9.3,0.3,20.1,9.6,24.1s20.1-0.3,24.1-9.6C76.7,94.1,65.3,89.6,57.8,78.2z"/>
			<g>
				<path class="st2" d="M68.6,78.4c-8.5-1-10.2,6.8-15.6,7.6"/>
				<path class="st3" d="M68.6,78.4c-8.5-1-10.2,6.8-15.6,7.6"/>
			</g>
			<path class="st7" d="M75.9,73c2.5,4.9,0.5,10.8-4.3,13.2c-4.9,2.5-13.8-15.1-8.9-17.6C67.5,66.2,73.4,68.2,75.9,73L75.9,73z"/>
			<path class="st4" d="M68.2,67.7C72.5,83.5,89.6,90,92.5,88.2s-3-9.7-3-9.7S76.9,64.8,68.2,67.7z"/>
			<g>
				<circle class="st7" cx="91.1" cy="61" r="21"/>
				<ellipse transform="matrix(0.9519 -0.3065 0.3065 0.9519 -12.2858 23.7884)" class="st0" cx="69.6" cy="51" rx="4" ry="5.5"/>
				
					<ellipse transform="matrix(0.7071 -0.7071 0.7071 0.7071 -3.2218 67.6759)" class="st0" cx="80.1" cy="37.7" rx="13.3" ry="6.2"/>
				
					<ellipse transform="matrix(0.9519 -0.3065 0.3065 0.9519 -5.9652 31.4287)" class="st0" cx="97.1" cy="34.7" rx="13.3" ry="6.2"/>
				<ellipse transform="matrix(0.34 -0.9404 0.9404 0.34 20.5707 114.812)" class="st0" cx="92.1" cy="42.8" rx="6.2" ry="13.3"/>
				
					<ellipse transform="matrix(0.9968 -8.011082e-02 8.011082e-02 0.9968 -3.2466 8.4831)" class="st0" cx="104.1" cy="44.7" rx="13.3" ry="6.2"/>
				<path class="st5" d="M73.8,68.9c-4.1,1.7-8.8-0.1-10.5-4.2c-1.7-4.1,0.1-8.8,4.2-10.5c2-0.9,4.3-0.9,6.3,0"/>
				<ellipse transform="matrix(0.9519 -0.3065 0.3065 0.9519 -12.9647 25.4653)" class="st0" cx="74.6" cy="54" rx="4" ry="5.5"/>
				<path class="st8" d="M85.2,53.7c1-1.8,3.2-2.4,5-1.5"/>
				<path class="st8" d="M104.1,53.7c-1-1.8-3.2-2.4-5-1.5"/>
				<path class="st8" d="M86.5,58.4c1.2-1.2,3.1-1.2,4.2,0l0,0"/>
				<path class="st8" d="M98.5,58.4c1.2-1.2,3.1-1.2,4.2,0l0,0"/>
				<path class="st8" d="M96.8,65.4c-1.2,1.2-3.1,1.2-4.2,0l0,0"/>
				<circle class="st8" cx="83.6" cy="64.5" r="1"/>
				<circle class="st8" cx="105.6" cy="64.5" r="1"/>
			</g>
			<path class="st1" d="M69,96c0,12-3,13-13,13"/>
			<polyline class="st9" points="82,122 92,118 100,114 			"/>
			<polyline class="st9" points="56.5,101.5 55.3,115.7 55.5,119.2 			"/>
		</g>
	</g>
	<rect class="st10" width="160" height="160"/>
</g>
<g>
	<ellipse class="st0" cx="236.1" cy="124" rx="28.2" ry="5.5"/>
	<g>
		<path class="st1" d="M239,96.5c4.6,7.4,8.6,15,12,23"/>
		<g>
			<path class="st2" d="M245.7,77.5c4.8,10.6,9.8,15.6,18.4,11.5"/>
			<path class="st3" d="M245.7,77.5c4.8,10.6,9.8,15.6,18.4,11.5"/>
		</g>
		<path class="st4" d="M259.6,82.3c-2.9,5.1,0.3,17,0.3,17s0,1-10.1-2.8C248.6,84.5,250.6,81.4,259.6,82.3z"/>
		<circle class="st5" cx="234.6" cy="86" r="18.4"/>
		<path class="st4" d="M238,79.5c0,6.6-3,12.8-8,17l-7-7C223,89.5,234,76.5,238,79.5z"/>
		<path class="st6" d="M217.8,78.7c-3.9,9.4,0.6,20.1,9.9,24c9.2,3.8,19.7-0.4,23.8-9.4C236.7,94.6,225.3,90.1,217.8,78.7z"/>
		<g>
			<path class="st2" d="M228.1,78.9c-8.4-1.2-10.3,6.6-15.7,7.3"/>
			<path class="st3" d="M228.1,78.9c-8.4-1.2-10.3,6.6-15.7,7.3"/>
		</g>
		<path class="st7" d="M235.5,73.6c2.4,4.9,0.3,10.8-4.6,13.2c-4.9,2.4-13.5-15.4-8.6-17.7C227.2,66.7,233.1,68.7,235.5,73.6z"/>
		<path class="st4" d="M228.2,68.2c4.3,15.8,21.3,22.3,24.3,20.6s-3-9.7-3-9.7S236.9,65.3,228.2,68.2z"/>
		<g>
			
				<ellipse transform="matrix(0.9968 -8.011098e-02 8.011098e-02 0.9968 -2.7323 21.3011)" class="st0" cx="264.1" cy="44.7" rx="13.3" ry="6.2"/>
			<circle class="st7" cx="251.1" cy="61.5" r="21"/>
			<ellipse transform="matrix(0.9519 -0.3065 0.3065 0.9519 -4.7382 72.8524)" class="st0" cx="229.6" cy="51.5" rx="4" ry="5.5"/>
			
				<ellipse transform="matrix(0.7071 -0.7071 0.7071 0.7071 43.6401 180.8126)" class="st0" cx="240.1" cy="37.7" rx="13.3" ry="6.2"/>
			
				<ellipse transform="matrix(0.9519 -0.3065 0.3065 0.9519 1.7357 80.4687)" class="st0" cx="257.1" cy="34.7" rx="13.3" ry="6.2"/>
			<ellipse transform="matrix(0.34 -0.9404 0.9404 0.34 126.1665 265.2893)" class="st0" cx="252.1" cy="42.8" rx="6.2" ry="13.3"/>
			<path class="st5" d="M233.8,69.4c-4.1,1.7-8.8-0.1-10.5-4.2s0.1-8.8,4.2-10.5c2-0.9,4.3-0.9,6.3,0"/>
			<ellipse transform="matrix(0.9519 -0.3065 0.3065 0.9519 -5.4171 74.5293)" class="st0" cx="234.6" cy="54.5" rx="4" ry="5.5"/>
			<path class="st8" d="M245.2,53.7c1-1.8,3.2-2.4,5-1.5"/>
			<path class="st8" d="M264.1,53.7c-1-1.8-3.2-2.4-5-1.5"/>
			<path class="st8" d="M246.5,58.4c1.2-1.2,3.1-1.2,4.2,0l0,0"/>
			<path class="st8" d="M258.5,58.4c1.2-1.2,3.1-1.2,4.2,0l0,0"/>
			<path class="st8" d="M256.8,65.4c-1.2,1.2-3.1,1.2-4.2,0l0,0"/>
			<circle class="st8" cx="243.6" cy="64.5" r="1"/>
			<circle class="st8" cx="265.6" cy="64.5" r="1"/>
		</g>
		<path class="st1" d="M229,96.5c-0.6,11.8-3.5,13-13.5,13"/>
		<polyline class="st9" points="243,122.5 253,118.5 261,114 		"/>
		<polyline class="st9" points="216,102 214.8,116.2 215,119.7 		"/>
	</g>
	<rect x="160" class="st10" width="160" height="160"/>
</g>
<g>
	<g>
		<ellipse class="st0" cx="396.1" cy="124" rx="31.5" ry="5.5"/>
		<g>
			<path class="st1" d="M398.7,101.8c4.2,5.9,9.4,17.8,11.5,22.7"/>
			<g>
				<path class="st2" d="M405.2,83.1c4.8,10.5,10,15.5,19,11.6"/>
				<path class="st3" d="M405.2,83.1c4.8,10.5,10,15.5,19,11.6"/>
			</g>
			<path class="st4" d="M419.7,88c-3.1,4.9,0,16.8,0,16.8s0,1-10.5-3C408.1,90,410.2,87,419.7,88z"/>
			<ellipse class="st5" cx="394.1" cy="91.5" rx="19.2" ry="18.1"/>
			<path class="st4" d="M397.7,85.1c0,10.9-8.4,16.8-8.4,16.8L382,95C381.9,94.9,393.5,82.1,397.7,85.1z"/>
			<path class="st6" d="M376.5,84.3c-4.2,9.2,0.3,19.8,10,23.8s21.1-0.3,25.3-9.5C396.3,100,384.4,95.5,376.5,84.3z"/>
			<g>
				<path class="st2" d="M387.8,84.5c-8.9-1-10.7,6.7-16.4,7.5"/>
				<path class="st3" d="M387.8,84.5c-8.9-1-10.7,6.7-16.4,7.5"/>
			</g>
			<path class="st7" d="M395.4,79.2c2.4,4.6,0.7,10.3-4,12.8c-0.2,0.1-0.4,0.2-0.6,0.3c-5.1,2.4-14.4-14.9-9.3-17.3
				C386.6,72.4,392.7,74.3,395.4,79.2z"/>
			<path class="st4" d="M387.4,73.9c4.5,15.6,22.4,22,25.5,20.3s-3.2-9.6-3.2-9.6S396.5,71.1,387.4,73.9z"/>
			<g>
				<ellipse class="st7" cx="411.4" cy="67.3" rx="22" ry="20.7"/>
				
					<ellipse transform="matrix(0.9289 -0.3702 0.3702 0.9289 6.3743 148.0453)" class="st0" cx="388.9" cy="57.4" rx="4.2" ry="5.5"/>
				
					<ellipse transform="matrix(0.7396 -0.673 0.673 0.7396 72.9147 281.2224)" class="st0" cx="399.9" cy="46.4" rx="13.5" ry="6.3"/>
				
					<ellipse transform="matrix(0.9595 -0.2817 0.2817 0.9595 4.6931 119.4228)" class="st0" cx="417.7" cy="43.4" rx="13.8" ry="6.1"/>
				
					<ellipse transform="matrix(0.313 -0.9498 0.9498 0.313 234.7201 426.968)" class="st0" cx="412.5" cy="51.2" rx="6.1" ry="13.8"/>
				
					<ellipse transform="matrix(0.9973 -7.310074e-02 7.310074e-02 0.9973 -2.7594 31.2098)" class="st0" cx="425" cy="53.3" rx="13.9" ry="6.1"/>
				<path class="st5" d="M393.3,73.1c-1.1,0.4-2.2,0.6-3.3,0.6c-4.4,0.3-8.1-3.1-8.4-7.4c-0.3-4.4,3.1-8.1,7.4-8.4c0.3,0,0.6,0,1,0
					c1.1,0,2.2,0.2,3.3,0.6"/>
				
					<ellipse transform="matrix(0.9289 -0.3702 0.3702 0.9289 5.6293 150.1911)" class="st0" cx="394.1" cy="60.4" rx="4.2" ry="5.5"/>
				<path class="st8" d="M405.2,62.1c1.1-1.8,3.4-2.4,5.2-1.4"/>
				<path class="st8" d="M425.1,62.1c-1.1-1.8-3.4-2.4-5.2-1.4"/>
				<path class="st8" d="M406.6,66.7c1.3-1.2,3.2-1.2,4.4,0"/>
				<path class="st8" d="M419.2,66.7c1.3-1.2,3.2-1.2,4.4,0"/>
				<path class="st8" d="M417.3,73.6c-1.3,1.2-3.2,1.2-4.4,0"/>
				<ellipse class="st8" cx="403.6" cy="72.8" rx="1" ry="1"/>
				<ellipse class="st8" cx="426.6" cy="72.8" rx="1" ry="1"/>
			</g>
			<path class="st1" d="M388.2,101.8c0,11.8-3.1,12.8-13.6,12.8"/>
			<polyline class="st9" points="401.8,127.5 412.3,123.6 420.7,119.6 			"/>
			<polyline class="st9" points="375.1,107.3 373.8,121.3 374,124.7 			"/>
		</g>
	</g>
	<rect x="320" class="st10" width="160" height="160"/>
</g>
<g>
	<g>
		<ellipse class="st0" cx="556.1" cy="124" rx="23.5" ry="5.5"/>
		<g>
			<path class="st1" d="M559,97c1.2,7.1,0.9,20.1,0.7,25.5"/>
			<g>
				<path class="st2" d="M565.2,78c0.2,11.6,2.9,18.1,12.4,17.7"/>
				<path class="st3" d="M565.2,78c0.2,11.6,2.9,18.1,12.4,17.7"/>
			</g>
			<path class="st4" d="M576.1,87.8c-4.7,3.5-6.4,15.8-6.4,15.8s-0.4,0.9-8.1-6.5C565.2,85.6,568.2,83.5,576.1,87.8z"/>
			<circle class="st5" cx="554.6" cy="86.5" r="18.4"/>
			<path class="st4" d="M558,80c0,6.6-3,12.8-8,17l-7-7C543,90,554,77,558,80z"/>
			<path class="st6" d="M537.8,79.2c-4.2,9.2,0,20.1,9.2,24.3c9.2,4.2,20.1,0,24.3-9.2c0.1-0.2,0.2-0.3,0.2-0.5
				C556.7,95.1,545.3,90.6,537.8,79.2z"/>
			<path class="st4" d="M548.2,68.7c4.3,15.8,21.3,22.3,24.3,20.6s-3-9.7-3-9.7S557,65.8,548.2,68.7z"/>
			<path class="st1" d="M550,96.5c9.2,7.7,8,10.7,1.6,18.3"/>
			<g>
				<path class="st2" d="M550,79.1c-5.1,6.8,0.8,12.3-1.2,17.3"/>
				<path class="st3" d="M550,79.1c-5.1,6.8,0.8,12.3-1.2,17.3"/>
			</g>
			<path class="st7" d="M549,70.1c5.4,0.3,9.6,4.9,9.3,10.4l0,0c-0.3,5.4-20,4.3-19.7-1.1C538.9,74,543.6,69.8,549,70.1z"/>
			<g>
				<circle class="st7" cx="571.1" cy="62" r="21"/>
				<ellipse transform="matrix(0.9519 -0.3065 0.3065 0.9519 10.5102 170.9564)" class="st0" cx="549.6" cy="52" rx="4" ry="5.5"/>
				<ellipse transform="matrix(0.1462 -0.9893 0.9893 0.1462 449.7 618.2792)" class="st0" cx="583" cy="48.6" rx="6.2" ry="13.3"/>
				<path class="st5" d="M554.8,69.9c-4.1,1.7-8.8-0.1-10.5-4.2s0.1-8.8,4.2-10.5c2-0.9,4.3-0.9,6.3,0"/>
				<g>
					
						<ellipse transform="matrix(0.848 -0.5299 0.5299 0.848 63.6601 304.0225)" class="st0" cx="561.9" cy="41" rx="13.3" ry="6.2"/>
					
						<ellipse transform="matrix(0.9964 -8.451453e-02 8.451453e-02 0.9964 -1.2036 48.9613)" class="st0" cx="577.7" cy="38.7" rx="13.3" ry="6.2"/>
					
						<ellipse transform="matrix(0.34 -0.9404 0.9404 0.34 329.7352 567.382)" class="st0" cx="569.1" cy="48.8" rx="6.2" ry="13.3"/>
					<ellipse transform="matrix(0.9519 -0.3065 0.3065 0.9519 9.8314 172.6332)" class="st0" cx="554.6" cy="55" rx="4" ry="5.5"/>
				</g>
				<g>
					<path class="st8" d="M566.2,59.7c1-1.8,3.2-2.4,5-1.5"/>
					<path class="st8" d="M585.1,59.7c-1-1.8-3.2-2.4-5-1.5"/>
					<path class="st8" d="M567.5,64.4c1.2-1.2,3.1-1.2,4.2,0l0,0"/>
					<path class="st8" d="M579.5,64.4c1.2-1.2,3.1-1.2,4.2,0l0,0"/>
					<path class="st8" d="M577.8,71.4c-1.2,1.2-3.1,1.2-4.2,0l0,0"/>
					<circle class="st8" cx="564.6" cy="70.5" r="1"/>
					<circle class="st8" cx="586.6" cy="70.5" r="1"/>
				</g>
			</g>
			<polyline class="st9" points="551.2,122 561.9,122.4 570.9,122 			"/>
			<polyline class="st9" points="546.2,109.6 556.3,119.7 559.1,121.8 			"/>
		</g>
	</g>
	<rect x="480" class="st10" width="160" height="160"/>
</g>
<g>
	<ellipse class="st0" cx="716.1" cy="124" rx="27.6" ry="5.5"/>
	<g>
		<g>
			<g>
				<path class="st2" d="M715.1,78.4c-8.5-1-10.2,6.8-15.6,7.6"/>
				<path class="st3" d="M715.1,78.4c-8.5-1-10.2,6.8-15.6,7.6"/>
			</g>
			<path class="st1" d="M720.2,97.2c6.3,3.5,16.7,12.9,20.8,16.4"/>
			<circle class="st5" cx="714.6" cy="85.5" r="18.4"/>
			<path class="st4" d="M718,79c0,6.6-3,12.8-8,17l-7-7C703,89,714,76,718,79z"/>
			<path class="st6" d="M697.8,78.2c-4.2,9.2,0,20.1,9.2,24.3c9.2,4.2,20.1,0,24.3-9.2c0.1-0.2,0.2-0.3,0.2-0.5
				C716.7,94.1,705.3,89.6,697.8,78.2z"/>
			<path class="st4" d="M708.2,67.7c4.3,15.8,21.3,22.3,24.3,20.6s-3-9.7-3-9.7S717,64.8,708.2,67.7z"/>
			<g>
				
					<ellipse transform="matrix(0.9968 -8.011082e-02 8.011082e-02 0.9968 -1.2008 59.4744)" class="st0" cx="740.6" cy="44.7" rx="13.3" ry="6.2"/>
				<circle class="st7" cx="731.1" cy="61" r="21"/>
				<ellipse transform="matrix(0.9519 -0.3065 0.3065 0.9519 18.5176 219.9482)" class="st0" cx="709.6" cy="51" rx="4" ry="5.5"/>
				<path class="st5" d="M717.3,68.9c-4.1,1.7-8.8-0.1-10.5-4.2s0.1-8.8,4.2-10.5c2-0.9,4.3-0.9,6.3,0"/>
				<g>
					
						<ellipse transform="matrix(0.7071 -0.7071 0.7071 0.7071 184.9577 521.9902)" class="st0" cx="722.6" cy="37.7" rx="13.3" ry="6.2"/>
					
						<ellipse transform="matrix(0.9519 -0.3065 0.3065 0.9519 24.9585 228.3548)" class="st0" cx="739.6" cy="34.7" rx="13.3" ry="6.2"/>
					
						<ellipse transform="matrix(0.34 -0.9404 0.9404 0.34 444.6043 719.0713)" class="st0" cx="734.6" cy="42.8" rx="6.2" ry="13.3"/>
					<ellipse transform="matrix(0.9519 -0.3065 0.3065 0.9519 17.959 222.3913)" class="st0" cx="717.1" cy="54" rx="4" ry="5.5"/>
				</g>
				<g>
					<path class="st8" d="M728.7,53.7c1-1.8,3.2-2.4,5-1.5"/>
					<path class="st8" d="M747.6,53.7c-1-1.8-3.2-2.4-5-1.5"/>
					<path class="st8" d="M730,58.4c1.2-1.2,3.1-1.2,4.2,0l0,0"/>
					<path class="st8" d="M742,58.4c1.2-1.2,3.1-1.2,4.2,0l0,0"/>
					<path class="st8" d="M740.3,65.4c-1.2,1.2-3.1,1.2-4.2,0l0,0"/>
					<circle class="st8" cx="727.1" cy="64.5" r="1"/>
					<circle class="st8" cx="749.1" cy="64.5" r="1"/>
				</g>
			</g>
			<path class="st1" d="M705,95c0,12-4,14-14,14"/>
			<polyline class="st9" points="735.3,120 742.3,111.9 747.6,104.7 			"/>
			<polyline class="st9" points="691.5,101.5 690.3,115.7 690.5,119.2 			"/>
			<g>
				<path class="st2" d="M715.2,77c4.2,9.8,8.7,14.4,16.6,10.8"/>
				<path class="st3" d="M715.2,77c4.2,9.8,8.7,14.4,16.6,10.8"/>
			</g>
			<path class="st7" d="M710.4,68.5c4.9-2.5,10.8-0.5,13.2,4.3c2.5,4.9-15.1,13.7-17.6,8.9C703.6,76.9,705.5,71,710.4,68.5
				L710.4,68.5z"/>
		</g>
		<rect x="640" class="st10" width="160" height="160"/>
	</g>
</g>
<g>
	<ellipse class="st0" cx="876.1" cy="124" rx="31.5" ry="5.5"/>
	<g>
		<g>
			<g>
				<path class="st2" d="M874.6,79.4c-8.5-1-10.2,6.8-15.6,7.6"/>
				<path class="st3" d="M874.6,79.4c-8.5-1-10.2,6.8-15.6,7.6"/>
			</g>
			<path class="st1" d="M880.7,97.2c6.3,3.5,16.7,13.4,20.8,16.9"/>
			<circle class="st5" cx="874.6" cy="86" r="18.4"/>
			<path class="st4" d="M878,79.5c0,6.6-3,12.8-8,17l-7-7C863,89.5,874,76.5,878,79.5z"/>
			<path class="st6" d="M857.8,78.7c-4.2,9.2,0,20.1,9.2,24.3c9.2,4.2,20.1,0,24.3-9.2c0.1-0.2,0.2-0.3,0.2-0.5
				C876.7,94.6,865.3,90.1,857.8,78.7z"/>
			<path class="st4" d="M868.2,68.2c4.3,15.8,21.3,22.3,24.3,20.6s-3-9.7-3-9.7S877,65.3,868.2,68.2z"/>
			<g>
				
					<ellipse transform="matrix(0.9968 -8.011082e-02 8.011082e-02 0.9968 -0.6866 72.2923)" class="st0" cx="900.6" cy="44.7" rx="13.3" ry="6.2"/>
				<circle class="st7" cx="891.1" cy="61.5" r="21"/>
				
					<ellipse transform="matrix(0.9519 -0.3065 0.3065 0.9519 26.0652 269.0122)" class="st0" cx="869.6" cy="51.5" rx="4" ry="5.5"/>
				<path class="st5" d="M877.3,69.9c-4.1,1.7-8.8-0.1-10.5-4.2s0.1-8.8,4.2-10.5c2-0.9,4.3-0.9,6.3,0"/>
				<g>
					
						<ellipse transform="matrix(0.7071 -0.7071 0.7071 0.7071 231.8195 635.127)" class="st0" cx="882.6" cy="37.7" rx="13.3" ry="6.2"/>
					
						<ellipse transform="matrix(0.9519 -0.3065 0.3065 0.9519 32.6593 277.3947)" class="st0" cx="899.6" cy="34.7" rx="13.3" ry="6.2"/>
					
						<ellipse transform="matrix(0.34 -0.9404 0.9404 0.34 550.1987 869.5482)" class="st0" cx="894.6" cy="42.8" rx="6.2" ry="13.3"/>
					
						<ellipse transform="matrix(0.9519 -0.3065 0.3065 0.9519 25.5066 271.4554)" class="st0" cx="877.1" cy="54.5" rx="4" ry="5.5"/>
				</g>
				<g>
					<path class="st8" d="M888.7,53.7c1-1.8,3.2-2.4,5-1.5"/>
					<path class="st8" d="M907.6,53.7c-1-1.8-3.2-2.4-5-1.5"/>
					<path class="st8" d="M890,58.4c1.2-1.2,3.1-1.2,4.2,0l0,0"/>
					<path class="st8" d="M902,58.4c1.2-1.2,3.1-1.2,4.2,0l0,0"/>
					<path class="st8" d="M900.3,65.4c-1.2,1.2-3.1,1.2-4.2,0l0,0"/>
					<circle class="st8" cx="887.1" cy="64.5" r="1"/>
					<circle class="st8" cx="909.1" cy="64.5" r="1"/>
				</g>
			</g>
			<path class="st1" d="M865,95.5c0,12-4.5,14-14.5,14"/>
			<polyline class="st9" points="895.8,120.5 902.8,112.4 908.1,105.2 			"/>
			<polyline class="st9" points="851,102 849.8,116.2 850,119.7 			"/>
			<g>
				<path class="st2" d="M875.7,78c4.2,9.8,8.7,14.4,16.6,10.8"/>
				<path class="st3" d="M875.7,78c4.2,9.8,8.7,14.4,16.6,10.8"/>
			</g>
			<path class="st7" d="M870.9,69.5c4.9-2.5,10.8-0.5,13.2,4.3c2.5,4.9-15.1,13.7-17.6,8.9C864.1,77.9,866,72,870.9,69.5L870.9,69.5
				z"/>
		</g>
		<rect x="800" class="st10" width="160" height="160"/>
	</g>
</g>
<g>
	<ellipse class="st0" cx="1036.1" cy="124" rx="28.2" ry="5.5"/>
	<g>
		<g>
			<g>
				<path class="st2" d="M1034.3,84.8c-8.8-1-10.7,6.7-16.3,7.5"/>
				<path class="st3" d="M1034.3,84.8c-8.8-1-10.7,6.7-16.3,7.5"/>
			</g>
			<path class="st1" d="M1040.7,102.5c6.6,3.5,17.5,13.3,21.8,16.8"/>
			<ellipse class="st5" cx="1034.3" cy="91.3" rx="19.2" ry="18.2"/>
			<path class="st4" d="M1037.8,84.9c0,10.9-8.4,16.8-8.4,16.8l-7.3-6.9C1022.1,94.8,1033.6,81.9,1037.8,84.9z"/>
			<path class="st6" d="M1016.7,84.1c-4.2,9.2,0.3,19.9,10,23.9s21-0.3,25.2-9.5C1036.5,99.9,1024.6,95.4,1016.7,84.1z"/>
			<path class="st4" d="M1027.6,73.7c4.5,15.7,22.3,22.1,25.4,20.4s-3.2-9.6-3.2-9.6S1036.7,70.9,1027.6,73.7z"/>
			<g>
				
					<ellipse transform="matrix(0.9973 -7.374130e-02 7.374130e-02 0.9973 -1.0109 78.4219)" class="st0" cx="1061.5" cy="52.9" rx="13.9" ry="6.1"/>
				<ellipse class="st7" cx="1051.6" cy="67.1" rx="22" ry="20.8"/>
				
					<ellipse transform="matrix(0.9317 -0.3632 0.3632 0.9317 49.4946 377.687)" class="st0" cx="1029.1" cy="57.2" rx="4.2" ry="5.5"/>
				<path class="st5" d="M1037.1,72.8c-1,0.4-2.2,0.6-3.3,0.6c-4.4,0.2-8.1-3.1-8.4-7.5s3.1-8.1,7.5-8.4c0.3,0,0.6,0,0.9,0
					c1.1,0,2.2,0.2,3.3,0.6"/>
				<g>
					
						<ellipse transform="matrix(0.7366 -0.6764 0.6764 0.7366 243.6158 717.3582)" class="st0" cx="1042.7" cy="45.9" rx="13.5" ry="6.3"/>
					
						<ellipse transform="matrix(0.9588 -0.2839 0.2839 0.9588 31.4184 302.8456)" class="st0" cx="1060.4" cy="43" rx="13.8" ry="6.1"/>
					
						<ellipse transform="matrix(0.3155 -0.9489 0.9489 0.3155 673.885 1036.2982)" class="st0" cx="1055.3" cy="51" rx="6.1" ry="13.8"/>
					
						<ellipse transform="matrix(0.9317 -0.3632 0.3632 0.9317 48.964 380.7113)" class="st0" cx="1036.9" cy="60.1" rx="4.2" ry="5.5"/>
				</g>
				<g>
					<path class="st8" d="M1049,61.8c1.1-1.8,3.4-2.4,5.2-1.5"/>
					<path class="st8" d="M1068.8,61.8c-1.1-1.8-3.4-2.4-5.2-1.5"/>
					<path class="st8" d="M1050.4,66.5c1.3-1.2,3.2-1.2,4.4,0"/>
					<path class="st8" d="M1063,66.5c1.3-1.2,3.2-1.2,4.4,0"/>
					<path class="st8" d="M1061.1,73.4c-1.3,1.2-3.2,1.2-4.4,0"/>
					<ellipse class="st8" cx="1047.4" cy="72.5" rx="1" ry="1"/>
					<ellipse class="st8" cx="1070.4" cy="72.5" rx="1" ry="1"/>
				</g>
			</g>
			<path class="st1" d="M1024.2,100.7c0,11.9-4.7,13.9-15.2,13.9"/>
			<polyline class="st9" points="1056.4,125.5 1063.8,117.4 1069.3,110.3 			"/>
			<polyline class="st9" points="1009.6,107.2 1008.3,121.2 1008.5,124.7 			"/>
			<g>
				<path class="st2" d="M1035.4,83.4c4.4,9.7,9.1,14.2,17.4,10.7"/>
				<path class="st3" d="M1035.4,83.4c4.4,9.7,9.1,14.2,17.4,10.7"/>
			</g>
			<path class="st7" d="M1030.4,75c5-2.4,11.1-0.6,13.8,4.3c2.6,4.8-15.8,13.6-18.4,8.8c-2.4-4.7-0.6-10.4,4-12.8
				C1030,75.2,1030.2,75.1,1030.4,75z"/>
		</g>
		<rect x="960" class="st10" width="160" height="160"/>
	</g>
</g>
<g>
	<ellipse class="st0" cx="1196.1" cy="124" rx="23.5" ry="5.5"/>
	<g>
		<g>
			<g>
				<path class="st2" d="M1198.4,80.7c-5.9,6.1-0.7,12.3-3.3,17"/>
				<path class="st3" d="M1198.4,80.7c-5.9,6.1-0.7,12.3-3.3,17"/>
			</g>
			<path class="st1" d="M1200.7,97.2c1,7.1-0.6,21.4-1,26.8"/>
			<circle class="st5" cx="1194.6" cy="86" r="18.4"/>
			<path class="st4" d="M1198,79.5c0,6.6-3,12.8-8,17l-7-7C1183,89.5,1194,76.5,1198,79.5z"/>
			<path class="st6" d="M1177.8,78.7c-3.9,9.4,0.6,20.1,10,24c9.2,3.8,19.7-0.4,23.7-9.4C1196.7,94.6,1185.3,90.1,1177.8,78.7z"/>
			<path class="st4" d="M1188.2,68.2c4.3,15.8,21.3,22.3,24.3,20.6s-3-9.7-3-9.7S1196.9,65.3,1188.2,68.2z"/>
			<g>
				<circle class="st7" cx="1211.1" cy="61.5" r="21"/>
				
					<ellipse transform="matrix(0.9519 -0.3065 0.3065 0.9519 41.4669 367.0921)" class="st0" cx="1189.6" cy="51.5" rx="4" ry="5.5"/>
				
					<ellipse transform="matrix(0.848 -0.5299 0.5299 0.848 161.246 643.589)" class="st0" cx="1202.8" cy="40.6" rx="13.3" ry="6.2"/>
				
					<ellipse transform="matrix(0.9964 -8.451453e-02 8.451453e-02 0.9964 1.1317 103.1326)" class="st0" cx="1218.7" cy="38.2" rx="13.3" ry="6.2"/>
				
					<ellipse transform="matrix(0.34 -0.9404 0.9404 0.34 757.1096 1171.4019)" class="st0" cx="1213.1" cy="46.3" rx="6.2" ry="13.3"/>
				
					<ellipse transform="matrix(0.1462 -0.9893 0.9893 0.1462 996.5403 1251.0769)" class="st0" cx="1223" cy="48.2" rx="6.2" ry="13.3"/>
				<path class="st5" d="M1194.8,67.4c-4.1,1.7-8.8-0.1-10.5-4.2s0.1-8.8,4.2-10.5c2-0.9,4.3-0.9,6.3,0"/>
				
					<ellipse transform="matrix(0.9519 -0.3065 0.3065 0.9519 40.8361 369.0755)" class="st0" cx="1195.6" cy="54.5" rx="4" ry="5.5"/>
				<g>
					<path class="st8" d="M1206.2,57.2c1-1.8,3.2-2.4,5-1.5"/>
					<path class="st8" d="M1225.1,57.2c-1-1.8-3.2-2.4-5-1.5"/>
					<path class="st8" d="M1207.5,61.9c1.2-1.2,3.1-1.2,4.2,0l0,0"/>
					<path class="st8" d="M1219.5,61.9c1.2-1.2,3.1-1.2,4.2,0l0,0"/>
					<path class="st8" d="M1217.8,68.9c-1.2,1.2-3.1,1.2-4.2,0l0,0"/>
					<circle class="st8" cx="1204.6" cy="68" r="1"/>
					<circle class="st8" cx="1226.6" cy="68" r="1"/>
				</g>
			</g>
			<path class="st1" d="M1195,95.5c0,12-4.5,14-14.5,14"/>
			<polyline class="st9" points="1191.2,123.2 1201.9,124 1210.9,123.9 			"/>
			<polyline class="st9" points="1181,102 1179.8,116.2 1180,119.7 			"/>
			<g>
				<path class="st2" d="M1193.7,77.9c-5.3,9.3-6.3,15.8,1.4,20"/>
				<path class="st3" d="M1193.7,77.9c-5.3,9.3-6.3,15.8,1.4,20"/>
			</g>
			<path class="st7" d="M1197.9,69c4.9,2.4,6.9,8.3,4.5,13.2l0,0c-2.4,4.9-20.1-3.8-17.7-8.7C1187.1,68.6,1193,66.6,1197.9,69z"/>
		</g>
		<rect x="1120" class="st10" width="160" height="160"/>
	</g>
</g>
</svg>
