<?xml version="1.0" encoding="utf-8"?>
<!-- Generator: Adobe Illustrator 23.0.2, SVG Export Plug-In . SVG Version: 6.00 Build 0)  -->
<svg version="1.1" id="Layer_1" xmlns="http://www.w3.org/2000/svg" xmlns:xlink="http://www.w3.org/1999/xlink" x="0px" y="0px"
	 width="1280px" height="160px" viewBox="0 0 1280 160" style="enable-background:new 0 0 1280 160;" xml:space="preserve">
<style type="text/css">
	.st0{fill:none;}
	.st1{fill:#FB3600;stroke:#000001;stroke-width:3;stroke-linecap:round;stroke-linejoin:round;}
	.st2{fill:#000001;}
	.st3{fill:none;stroke:#000001;stroke-width:3;stroke-linecap:round;stroke-linejoin:round;}
	.st4{fill:#000001;stroke:#000001;stroke-width:3;stroke-linecap:round;}
	.st5{fill:#FCFCFC;stroke:#000001;stroke-width:3;stroke-linecap:round;stroke-linejoin:round;}
	.st6{fill:#000001;stroke:#000001;stroke-width:3;stroke-linecap:round;stroke-linejoin:round;}
	.st7{fill:#000001;stroke:#000001;stroke-width:3;}
</style>
<title>csshtml-walking</title>
<rect class="st0" width="160" height="160"/>
<g>
	<g>
		<path class="st1" d="M50.5,50V32c0-15.5,12.5-28,28-28l0,0c15.5,0,28,12.5,28,28v18H50.5z"/>
		<rect x="44.5" y="45" class="st1" width="68" height="15"/>
		<g>
			<path class="st2" d="M63.1,36.1V24.9c0-0.8,0.6-1.4,1.4-1.4l0,0h7v2.8h-5.6l0,0v8.4l0,0h5.6v2.8h-7
				C63.7,37.5,63.1,36.8,63.1,36.1z"/>
			<path class="st2" d="M74.3,34.7h5.6l0,0v-2.9l0,0h-4.2c-0.8,0-1.4-0.6-1.4-1.4l0,0V25c0-0.8,0.6-1.4,1.4-1.4l0,0h7v2.8h-5.6l0,0
				v2.9l0,0h4.2c0.8,0,1.4,0.6,1.4,1.4l0,0v5.4c0,0.8-0.6,1.4-1.4,1.4h-7V34.7z"/>
			<path class="st2" d="M85.5,34.7h5.6l0,0v-2.9l0,0h-4.2c-0.8,0-1.4-0.6-1.4-1.4l0,0V25c0-0.8,0.6-1.4,1.4-1.4l0,0h7v2.8h-5.6l0,0
				v2.9l0,0h4.2c0.8,0,1.4,0.6,1.4,1.4l0,0v5.4c0,0.8-0.6,1.4-1.4,1.4h-7V34.7z"/>
		</g>
	</g>
	<g>
		<path class="st3" d="M41.1,111.4c-3.5-3.5-3.5-9.2,0-12.7s9.2-3.5,12.7,0"/>
		<ellipse class="st4" cx="78" cy="124.5" rx="21.5" ry="3.1"/>
		<polyline class="st3" points="86.5,110 91.5,121 94.5,118 		"/>
		<line class="st3" x1="107.5" y1="87" x2="125.5" y2="80"/>
		<rect x="46.5" y="60" class="st5" width="64" height="51"/>
		<rect x="46.5" y="60" class="st6" width="64" height="2"/>
		<g>
			<circle class="st6" cx="69.5" cy="62" r="9"/>
			<circle class="st6" cx="87.5" cy="62" r="9"/>
			<circle class="st5" cx="69.5" cy="60" r="9"/>
			<circle class="st7" cx="71.5" cy="59" r="1"/>
			<circle class="st5" cx="87.5" cy="60" r="9"/>
			<circle class="st7" cx="89.5" cy="59" r="1"/>
		</g>
		<g>
			<path class="st2" d="M64.5,81.5v14h-2.8v-5.8h-4.2v5.8h-2.8v-14h2.8v5.8h4.2v-5.8H64.5z"/>
			<path class="st2" d="M75.7,84.3h-2.8v11.2h-2.8V84.3h-2.8v-2.8h8.4L75.7,84.3z"/>
			<path class="st2" d="M78.5,81.5h4.4l1.7,6.8H85l1.7-6.8h4.4v14h-2.8v-11h-0.2l-1.7,6.4h-3.1l-1.7-6.4h-0.2v11h-2.8v-14H78.5z"/>
			<path class="st2" d="M93.9,81.5h2.8v11.2h5.6v2.8h-8.4V81.5z"/>
		</g>
		<path class="st3" d="M74.5,111c3,5-5,11-5,11"/>
	</g>
</g>
<rect x="160" class="st0" width="160" height="160"/>
<g>
	<ellipse class="st4" cx="238" cy="124.5" rx="21.5" ry="3.1"/>
	<g>
		<polyline class="st3" points="246.5,110 252,121.5 255,118.5 		"/>
		<path class="st3" d="M234.5,111c2.4,5.9-6,11-6,11"/>
	</g>
	<g>
		<path class="st1" d="M210.5,50.5v-18c0-15.5,12.5-28,28-28l0,0c15.5,0,28,12.5,28,28v18H210.5z"/>
		<rect x="204.5" y="45.5" class="st1" width="68" height="15"/>
		<g>
			<path class="st2" d="M223.1,36.6V25.4c0-0.8,0.6-1.4,1.4-1.4h7v2.8h-5.6l0,0v8.4l0,0h5.6V38h-7C223.7,38,223.1,37.3,223.1,36.6z"
				/>
			<path class="st2" d="M234.3,35.2h5.6l0,0v-2.9l0,0h-4.2c-0.8,0-1.4-0.6-1.4-1.4v-5.4c0-0.8,0.6-1.4,1.4-1.4h7v2.8h-5.6l0,0v2.9
				l0,0h4.2c0.8,0,1.4,0.6,1.4,1.4v5.4c0,0.8-0.6,1.4-1.4,1.4h-7V35.2z"/>
			<path class="st2" d="M245.5,35.2h5.6l0,0v-2.9l0,0h-4.2c-0.8,0-1.4-0.6-1.4-1.4v-5.4c0-0.8,0.6-1.4,1.4-1.4h7v2.8h-5.6l0,0v2.9
				l0,0h4.2c0.8,0,1.4,0.6,1.4,1.4v5.4c0,0.8-0.6,1.4-1.4,1.4h-7V35.2z"/>
		</g>
		<path class="st3" d="M201.1,111.4c-3.4-3.2-3.5-8.5-0.3-11.9c0.1-0.1,0.2-0.2,0.3-0.3c3.5-3.5,9.2-3.5,12.7,0l0,0"/>
		<line class="st3" x1="267.5" y1="87.5" x2="285.5" y2="80"/>
		<rect x="206.5" y="60.5" class="st5" width="64" height="51"/>
		<rect x="206.5" y="60.5" class="st6" width="64" height="2"/>
		<g>
			<circle class="st6" cx="229.5" cy="62.5" r="9"/>
			<circle class="st6" cx="247.5" cy="62.5" r="9"/>
			<circle class="st5" cx="229.5" cy="60.5" r="9"/>
			<circle class="st7" cx="231.5" cy="59" r="1"/>
			<circle class="st5" cx="247.5" cy="60.5" r="9"/>
			<circle class="st7" cx="249.5" cy="59" r="1"/>
		</g>
		<g>
			<path class="st2" d="M224.5,82v14h-2.8v-5.8h-4.2V96h-2.8V82h2.8v5.8h4.2V82H224.5z"/>
			<path class="st2" d="M235.7,84.8h-2.8V96h-2.8V84.8h-2.8V82h8.4L235.7,84.8z"/>
			<path class="st2" d="M238.5,82h4.4l1.7,6.8h0.3l1.7-6.8h4.4v14h-2.8V85H248l-1.7,6.4h-3.1l-1.7-6.4h-0.2v11h-2.8L238.5,82z"/>
			<path class="st2" d="M253.9,82h2.8v11.2h5.6V96h-8.4V82z"/>
		</g>
	</g>
</g>
<rect x="320" class="st0" width="160" height="160"/>
<g>
	<ellipse class="st4" cx="398" cy="124.5" rx="21.5" ry="3.1"/>
	<g>
		<path class="st3" d="M406.7,112.6c4.5,1.6,5.4,5.6,2.6,8.9l3.9,0.1"/>
		<path class="st3" d="M392.1,111.2c1.5,8.3-7.3,10.8-7.3,10.8"/>
	</g>
	<g>
		<path class="st1" d="M369.1,54.3V36.6c0-15.3,13.1-27.7,29.2-27.7l0,0c16.1,0,29.2,12.4,29.2,27.7v17.8L369.1,54.3z"/>
		<rect x="362.8" y="49.4" class="st1" width="71" height="14.8"/>
		<g>
			<path class="st2" d="M382.3,40.6V29.5c0-0.8,0.7-1.4,1.5-1.4h7.3v2.7h-5.8l0,0v8.3l0,0h5.8V42h-7.3
				C382.9,42,382.3,41.4,382.3,40.6z"/>
			<path class="st2" d="M394,39.2h5.8l0,0v-2.9l0,0h-4.4c-0.8,0-1.4-0.6-1.5-1.4v-5.3c0-0.8,0.7-1.4,1.5-1.4h7.3V31h-5.8l0,0v2.9
				l0,0h4.4c0.8,0,1.4,0.6,1.5,1.4v5.4c0,0.8-0.7,1.4-1.5,1.4H394V39.2z"/>
			<path class="st2" d="M405.7,39.2h5.8l0,0v-2.9l0,0h-4.4c-0.8,0-1.4-0.6-1.5-1.4v-5.3c0-0.8,0.7-1.4,1.5-1.4h7.3V31h-5.8l0,0v2.9
				l0,0h4.4c0.8,0,1.4,0.6,1.5,1.4v5.4c0,0.8-0.7,1.4-1.5,1.4h-7.3V39.2z"/>
		</g>
		<path class="st3" d="M359.3,113c-3.7-3.5-3.7-7.1,0-10.6c3.8-3.5,9.5-3.5,13.3,0"/>
		<line class="st3" x1="428.6" y1="90.9" x2="447.4" y2="82"/>
		<rect x="364.9" y="64.2" class="st5" width="66.8" height="50.4"/>
		<rect x="364.9" y="64.2" class="st6" width="66.8" height="2"/>
		<g>
			<ellipse class="st6" cx="388.9" cy="66.2" rx="9.4" ry="8.9"/>
			<ellipse class="st6" cx="407.7" cy="66.2" rx="9.4" ry="8.9"/>
			<ellipse class="st5" cx="388.9" cy="64.2" rx="9.4" ry="8.9"/>
			<ellipse class="st7" cx="391" cy="63.2" rx="1" ry="1"/>
			<ellipse class="st5" cx="407.7" cy="64.2" rx="9.4" ry="8.9"/>
			<ellipse class="st7" cx="409.8" cy="63.2" rx="1" ry="1"/>
		</g>
		<g>
			<path class="st2" d="M383.7,85.4v13.8h-2.9v-5.7h-4.4v5.7h-2.9V85.4h2.9v5.7h4.4v-5.7H383.7z"/>
			<path class="st2" d="M395.4,88.2h-2.9v11.1h-2.9V88.2h-2.9v-2.8h8.8L395.4,88.2z"/>
			<path class="st2" d="M398.3,85.4h4.6l1.8,6.7h0.3l1.8-6.7h4.6v13.8h-2.9V88.4h-0.2l-1.8,6.3h-3.3l-1.8-6.3h-0.2v10.8h-2.9V85.4z"
				/>
			<path class="st2" d="M414.4,85.4h2.9v11.1h5.8v2.8h-8.8V85.4H414.4z"/>
		</g>
	</g>
</g>
<rect x="480" class="st0" width="160" height="160"/>
<rect x="480" class="st0" width="160" height="160"/>
<g>
	<ellipse class="st4" cx="558" cy="124.5" rx="21.5" ry="3.1"/>
	<g>
		<polyline class="st3" points="566.3,109.9 564.9,121 568.4,121.6 		"/>
		<path class="st3" d="M553.7,109.9c5.7,3.2,1.3,9.8-2.4,8.1l-1.2,3.6"/>
	</g>
	<g>
		<path class="st1" d="M532.2,48.4V30.3c0-15.6,11.9-28.2,26.5-28.2l0,0c14.6,0,26.5,12.6,26.5,28.2v18.1H532.2z"/>
		<rect x="526.5" y="43.4" class="st1" width="64.4" height="15.1"/>
		<g>
			<path class="st2" d="M544.1,34.4V23.1c0-0.8,0.6-1.4,1.3-1.4h6.6v2.8h-5.3l0,0V33l0,0h5.3v2.8h-6.6
				C544.7,35.8,544.1,35.1,544.1,34.4z"/>
			<path class="st2" d="M554.7,33h5.3l0,0v-3l0,0h-4c-0.8,0-1.3-0.7-1.3-1.4v-5.4c0-0.8,0.6-1.4,1.3-1.4h6.6v2.8h-5.3l0,0v2.9l0,0h4
				c0.8,0,1.3,0.7,1.3,1.4v5.5c0,0.8-0.6,1.4-1.3,1.4h-6.6V33z"/>
			<path class="st2" d="M565.3,33h5.3l0,0v-3l0,0h-4c-0.8,0-1.3-0.7-1.3-1.4v-5.4c0-0.8,0.6-1.4,1.3-1.4h6.6v2.8H568l0,0v2.9l0,0h4
				c0.8,0,1.3,0.7,1.3,1.4v5.5c0,0.8-0.6,1.4-1.3,1.4h-6.6L565.3,33z"/>
		</g>
		<path class="st3" d="M523.3,115.3c-3.3-3.5-3.3-12.3,0-15.9s8.7-5.6,12.1-2"/>
		<line class="st3" x1="586.1" y1="85.7" x2="603.2" y2="83.7"/>
		<rect x="528.4" y="58.5" class="st5" width="60.6" height="51.4"/>
		<rect x="528.4" y="58.5" class="st6" width="60.6" height="2"/>
		<g>
			<ellipse class="st6" cx="550.2" cy="60.5" rx="8.5" ry="9.1"/>
			<ellipse class="st6" cx="567.2" cy="60.5" rx="8.5" ry="9.1"/>
			<ellipse class="st5" cx="550.2" cy="58.5" rx="8.5" ry="9.1"/>
			<ellipse class="st7" cx="552.1" cy="57.5" rx="0.9" ry="1"/>
			<ellipse class="st5" cx="567.2" cy="58.5" rx="8.5" ry="9.1"/>
			<ellipse class="st7" cx="569.1" cy="57.5" rx="0.9" ry="1"/>
		</g>
		<g>
			<path class="st2" d="M545.4,80.1v14.1h-2.7v-5.8h-4v5.8H536V80.1h2.7V86h4v-5.8L545.4,80.1L545.4,80.1z"/>
			<path class="st2" d="M556,83h-2.7v11.3h-2.7V83h-2.7v-2.8h8V83H556z"/>
			<path class="st2" d="M558.7,80.1h4.2l1.6,6.9h0.3l1.6-6.9h4.2v14.1H568v-11h-0.2l-1.6,6.4h-3l-1.6-6.4h-0.2v11.1h-2.7V80.1z"/>
			<path class="st2" d="M573.3,80.1h2.7v11.3h5.3v2.8h-8V80.1z"/>
		</g>
	</g>
</g>
<rect x="640" class="st0" width="160" height="160"/>
<g>
	<g>
		<path class="st1" d="M690.5,50V32c0-15.5,12.5-28,28-28l0,0c15.5,0,28,12.5,28,28v18H690.5z"/>
		<rect x="684.5" y="45" class="st1" width="68" height="15"/>
		<g>
			<path class="st2" d="M703.1,36.1V24.9c0-0.8,0.6-1.4,1.4-1.4l0,0h7v2.8h-5.6l0,0v8.4l0,0h5.6v2.8h-7
				C703.7,37.5,703.1,36.8,703.1,36.1z"/>
			<path class="st2" d="M714.3,34.7h5.6l0,0v-2.9l0,0h-4.2c-0.8,0-1.4-0.6-1.4-1.4l0,0V25c0-0.8,0.6-1.4,1.4-1.4l0,0h7v2.8h-5.6l0,0
				v2.9l0,0h4.2c0.8,0,1.4,0.6,1.4,1.4l0,0v5.4c0,0.8-0.6,1.4-1.4,1.4h-7V34.7z"/>
			<path class="st2" d="M725.5,34.7h5.6l0,0v-2.9l0,0h-4.2c-0.8,0-1.4-0.6-1.4-1.4l0,0V25c0-0.8,0.6-1.4,1.4-1.4l0,0h7v2.8h-5.6l0,0
				v2.9l0,0h4.2c0.8,0,1.4,0.6,1.4,1.4l0,0v5.4c0,0.8-0.6,1.4-1.4,1.4h-7V34.7z"/>
		</g>
	</g>
	<g>
		<path class="st3" d="M681.1,111.4c-3.5-3.5-3.5-9.2,0-12.7s9.2-3.5,12.7,0l0,0"/>
		<ellipse class="st4" cx="718" cy="124.5" rx="21.5" ry="3.1"/>
		<polyline class="st3" points="716.5,110 721.5,121 724.5,118 		"/>
		<line class="st3" x1="747.5" y1="87" x2="765.5" y2="80"/>
		<rect x="686.5" y="60" class="st5" width="64" height="51"/>
		<rect x="686.5" y="60" class="st6" width="64" height="2"/>
		<g>
			<circle class="st6" cx="709.5" cy="62" r="9"/>
			<circle class="st6" cx="727.5" cy="62" r="9"/>
			<circle class="st5" cx="709.5" cy="60" r="9"/>
			<circle class="st7" cx="711.5" cy="59" r="1"/>
			<circle class="st5" cx="727.5" cy="60" r="9"/>
			<circle class="st7" cx="729.5" cy="59" r="1"/>
		</g>
		<g>
			<path class="st2" d="M704.5,81.5v14h-2.8v-5.8h-4.2v5.8h-2.8v-14h2.8v5.8h4.2v-5.8H704.5z"/>
			<path class="st2" d="M715.7,84.3h-2.8v11.2h-2.8V84.3h-2.8v-2.8h8.4L715.7,84.3z"/>
			<path class="st2" d="M718.5,81.5h4.4l1.7,6.8h0.3l1.7-6.8h4.4v14h-2.8v-11H728l-1.7,6.4h-3.1l-1.7-6.4h-0.2v11h-2.8L718.5,81.5z"
				/>
			<path class="st2" d="M733.9,81.5h2.8v11.2h5.6v2.8h-8.4L733.9,81.5z"/>
		</g>
		<path class="st3" d="M724.5,111c3,5-5,11-5,11"/>
	</g>
</g>
<rect x="800" class="st0" width="160" height="160"/>
<g>
	<ellipse class="st4" cx="878" cy="124.5" rx="21.5" ry="3.1"/>
	<g>
		<polyline class="st3" points="876.5,110 882,121.5 885,118.5 		"/>
		<path class="st3" d="M884.5,111c2.4,5.9-6,11-6,11"/>
	</g>
	<g>
		<path class="st1" d="M850.5,50.5v-18c0-15.5,12.5-28,28-28l0,0c15.5,0,28,12.5,28,28v18H850.5z"/>
		<rect x="844.5" y="45.5" class="st1" width="68" height="15"/>
		<g>
			<path class="st2" d="M863.1,36.6V25.4c0-0.8,0.6-1.4,1.4-1.4l0,0h7v2.8h-5.6l0,0v8.4l0,0h5.6V38h-7
				C863.7,38,863.1,37.3,863.1,36.6z"/>
			<path class="st2" d="M874.3,35.2h5.6l0,0v-2.9l0,0h-4.2c-0.8,0-1.4-0.6-1.4-1.4l0,0v-5.4c0-0.8,0.6-1.4,1.4-1.4l0,0h7v2.8h-5.6
				l0,0v2.9l0,0h4.2c0.8,0,1.4,0.6,1.4,1.4l0,0v5.4c0,0.8-0.6,1.4-1.4,1.4h-7V35.2z"/>
			<path class="st2" d="M885.5,35.2h5.6l0,0v-2.9l0,0h-4.2c-0.8,0-1.4-0.6-1.4-1.4l0,0v-5.4c0-0.8,0.6-1.4,1.4-1.4l0,0h7v2.8h-5.6
				l0,0v2.9l0,0h4.2c0.8,0,1.4,0.6,1.4,1.4l0,0v5.4c0,0.8-0.6,1.4-1.4,1.4h-7V35.2z"/>
		</g>
		<path class="st3" d="M841.1,111.4c-3.4-3.2-3.5-8.5-0.3-11.9c0.1-0.1,0.2-0.2,0.3-0.3c3.5-3.5,9.2-3.5,12.7,0l0,0"/>
		<line class="st3" x1="907.5" y1="87.5" x2="925.5" y2="80"/>
		<rect x="846.5" y="60.5" class="st5" width="64" height="51"/>
		<rect x="846.5" y="60.5" class="st6" width="64" height="2"/>
		<g>
			<circle class="st6" cx="869.5" cy="62.5" r="9"/>
			<circle class="st6" cx="887.5" cy="62.5" r="9"/>
			<circle class="st5" cx="869.5" cy="60.5" r="9"/>
			<circle class="st7" cx="871.5" cy="59" r="1"/>
			<circle class="st5" cx="887.5" cy="60.5" r="9"/>
			<circle class="st7" cx="889.5" cy="59" r="1"/>
		</g>
		<g>
			<path class="st2" d="M864.5,82v14h-2.8v-5.8h-4.2V96h-2.8V82h2.8v5.8h4.2V82H864.5z"/>
			<path class="st2" d="M875.7,84.8h-2.8V96h-2.8V84.8h-2.8V82h8.4L875.7,84.8z"/>
			<path class="st2" d="M878.5,82h4.4l1.7,6.8h0.3l1.7-6.8h4.4v14h-2.8V85H888l-1.7,6.4h-3.1l-1.7-6.4h-0.2v11h-2.8L878.5,82z"/>
			<path class="st2" d="M893.9,82h2.8v11.2h5.6V96h-8.4L893.9,82z"/>
		</g>
	</g>
</g>
<rect x="960" class="st0" width="160" height="160"/>
<g>
	<ellipse class="st4" cx="1038" cy="124.5" rx="21.5" ry="3.1"/>
	<g>
		<path class="st3" d="M1036.2,112.6c4.6,1.6,5.5,5.6,2.6,8.9l3.9,0.1"/>
		<path class="st3" d="M1042.6,111.2c1.5,8.3-7.4,10.8-7.4,10.8"/>
	</g>
	<g>
		<path class="st1" d="M1009,54.4V36.6c0-15.3,13.1-27.6,29.3-27.6l0,0c16.2,0,29.3,12.4,29.3,27.6v17.8
			C1067.6,54.4,1009,54.4,1009,54.4z"/>
		<rect x="1002.7" y="49.4" class="st1" width="71.2" height="14.8"/>
		<g>
			<path class="st2" d="M1022.2,40.6V29.5c0-0.8,0.7-1.4,1.5-1.4h7.3v2.7h-5.8l0,0v8.3l0,0h5.8V42h-7.3
				C1022.9,42,1022.2,41.4,1022.2,40.6z"/>
			<path class="st2" d="M1033.9,39.2h5.8l0,0v-2.9l0,0h-4.4c-0.8,0-1.4-0.6-1.5-1.4v-5.3c0-0.8,0.7-1.4,1.5-1.4h7.3V31h-5.8l0,0v2.9
				l0,0h4.4c0.8,0,1.4,0.6,1.5,1.4v5.4c0,0.8-0.7,1.4-1.5,1.4h-7.3V39.2z"/>
			<path class="st2" d="M1045.7,39.2h5.8l0,0v-2.9l0,0h-4.4c-0.8,0-1.4-0.6-1.5-1.4v-5.3c0-0.8,0.7-1.4,1.5-1.4h7.3V31h-5.8l0,0v2.9
				l0,0h4.4c0.8,0,1.4,0.6,1.5,1.4v5.4c0,0.8-0.7,1.4-1.5,1.4h-7.3V39.2z"/>
		</g>
		<path class="st3" d="M999.2,113c-3.7-3.5-3.7-7.1,0-10.6c3.8-3.5,9.6-3.5,13.3,0"/>
		<line class="st3" x1="1068.7" y1="90.9" x2="1087.6" y2="82"/>
		<rect x="1004.8" y="64.2" class="st5" width="67" height="50.4"/>
		<rect x="1004.8" y="64.2" class="st6" width="67" height="2"/>
		<g>
			<ellipse class="st6" cx="1028.9" cy="66.2" rx="9.4" ry="8.9"/>
			<ellipse class="st6" cx="1047.8" cy="66.2" rx="9.4" ry="8.9"/>
			<ellipse class="st5" cx="1028.9" cy="64.2" rx="9.4" ry="8.9"/>
			<ellipse class="st7" cx="1031" cy="63.2" rx="1" ry="1"/>
			<ellipse class="st5" cx="1047.8" cy="64.2" rx="9.4" ry="8.9"/>
			<ellipse class="st7" cx="1049.9" cy="63.2" rx="1" ry="1"/>
		</g>
		<g>
			<path class="st2" d="M1023.7,85.4v13.8h-2.9v-5.7h-4.4v5.7h-2.9V85.4h2.9v5.7h4.4v-5.7H1023.7z"/>
			<path class="st2" d="M1035.4,88.2h-2.9v11.1h-2.9V88.2h-2.9v-2.8h8.8L1035.4,88.2z"/>
			<path class="st2" d="M1038.3,85.4h4.6l1.8,6.7h0.3l1.8-6.7h4.6v13.8h-2.9V88.4h-0.2l-1.8,6.3h-3.3l-1.8-6.3h-0.2v10.8h-2.9V85.4z
				"/>
			<path class="st2" d="M1054.5,85.4h2.9v11.1h5.9v2.8h-8.8V85.4z"/>
		</g>
	</g>
</g>
<rect x="1120" class="st0" width="160" height="160"/>
<rect x="1120" class="st0" width="160" height="160"/>
<g>
	<ellipse class="st4" cx="1198" cy="124.5" rx="21.5" ry="3.1"/>
	<g>
		<polyline class="st3" points="1196.8,109.9 1195.4,121 1198.9,121.6 		"/>
		<path class="st3" d="M1203.2,109.9c5.7,3.2,1.3,9.8-2.4,8.1l-1.2,3.6"/>
	</g>
	<g>
		<path class="st1" d="M1172.1,48.4V30.2c0-15.6,11.9-28.2,26.6-28.2l0,0c14.7,0,26.6,12.6,26.6,28.2v18.2H1172.1z"/>
		<rect x="1166.4" y="43.3" class="st1" width="64.5" height="15.1"/>
		<g>
			<path class="st2" d="M1184.1,34.3V23c0-0.8,0.6-1.4,1.3-1.4h6.6v2.8h-5.3l0,0v8.4l0,0h5.3v2.8h-6.6
				C1184.6,35.7,1184.1,35.1,1184.1,34.3z"/>
			<path class="st2" d="M1194.7,32.9h5.3l0,0v-3l0,0h-4c-0.8,0-1.3-0.7-1.3-1.4v-5.4c0-0.8,0.6-1.4,1.3-1.4h6.6v2.8h-5.3l0,0v2.9
				l0,0h4c0.8,0,1.3,0.7,1.3,1.4v5.5c0,0.8-0.6,1.4-1.3,1.4h-6.6V32.9z"/>
			<path class="st2" d="M1205.3,32.9h5.3l0,0v-3l0,0h-4c-0.8,0-1.3-0.7-1.3-1.4v-5.4c0-0.8,0.6-1.4,1.3-1.4h6.6v2.8h-5.3l0,0v2.9
				l0,0h4c0.8,0,1.3,0.7,1.3,1.4v5.5c0,0.8-0.6,1.4-1.3,1.4h-6.6V32.9z"/>
		</g>
		<path class="st3" d="M1163.2,115.3c-3.3-3.5-3.3-12.3,0-15.9s8.7-5.6,12.1-2"/>
		<line class="st3" x1="1226.2" y1="85.7" x2="1243.3" y2="83.7"/>
		<rect x="1168.3" y="58.5" class="st5" width="60.7" height="51.4"/>
		<rect x="1168.3" y="58.5" class="st6" width="60.7" height="2"/>
		<g>
			<ellipse class="st6" cx="1190.1" cy="60.5" rx="8.5" ry="9.1"/>
			<ellipse class="st6" cx="1207.2" cy="60.5" rx="8.5" ry="9.1"/>
			<ellipse class="st5" cx="1190.1" cy="58.5" rx="8.5" ry="9.1"/>
			<ellipse class="st7" cx="1192" cy="57.5" rx="0.9" ry="1"/>
			<ellipse class="st5" cx="1207.2" cy="58.5" rx="8.5" ry="9.1"/>
			<ellipse class="st7" cx="1209.1" cy="57.5" rx="0.9" ry="1"/>
		</g>
		<g>
			<path class="st2" d="M1185.4,80.1v14.1h-2.7v-5.8h-4v5.8h-2.7V80.1h2.7v5.8h4v-5.8H1185.4z"/>
			<path class="st2" d="M1196,82.9h-2.7v11.3h-2.7V82.9h-2.7v-2.8h8L1196,82.9z"/>
			<path class="st2" d="M1198.7,80.1h4.2l1.7,6.9h0.3l1.6-6.9h4.2v14.1h-2.7v-11h-0.2l-1.7,6.4h-3l-1.7-6.4h-0.2v11.1h-2.7
				L1198.7,80.1z"/>
			<path class="st2" d="M1213.3,80.1h2.7v11.3h5.3v2.8h-8V80.1z"/>
		</g>
	</g>
</g>
</svg>
