<?xml version="1.0" encoding="utf-8"?>
<!-- Generator: Adobe Illustrator 23.0.2, SVG Export Plug-In . SVG Version: 6.00 Build 0)  -->
<svg version="1.1" id="Layer_1" xmlns="http://www.w3.org/2000/svg" xmlns:xlink="http://www.w3.org/1999/xlink" x="0px" y="0px"
	 width="800px" height="160px" viewBox="0 0 800 160" style="enable-background:new 0 0 800 160;" xml:space="preserve">
<style type="text/css">
	.st0{fill:none;}
	.st1{fill:#F8F8F8;stroke:#000001;stroke-width:3;stroke-linecap:round;stroke-linejoin:round;}
	.st2{fill:#000001;stroke:#000001;stroke-width:3;stroke-linecap:round;}
	.st3{fill:#FB3600;stroke:#000001;stroke-width:3;stroke-linecap:round;stroke-linejoin:round;}
	.st4{fill:#000001;stroke:#000001;stroke-width:3;stroke-linecap:round;stroke-linejoin:round;}
	.st5{fill:#000001;stroke:#000001;stroke-width:3;}
	.st6{fill:#000001;}
</style>
<title>js-flying</title>
<rect class="st0" width="160" height="160"/>
<g>
	<g>
		<circle class="st1" cx="57.4" cy="20.8" r="11"/>
		<path class="st1" d="M63.8,11.9L52.4,3.7c-2.2-1.6-5.4-1.1-7,1.1s-1.1,5.4,1.2,7L58,20"/>
		<path class="st1" d="M54.5,24.9l-9.8-7c-1.3-1-1.7-2.8-0.7-4.2s2.8-1.7,4.2-0.7l9.8,7"/>
		<path class="st1" d="M51,29.8l-6.5-4.7c-1.3-1-1.7-2.8-0.7-4.2s2.8-1.7,4.2-0.7l6.5,4.7"/>
	</g>
	<g>
		<circle class="st1" cx="102.2" cy="21.8" r="11"/>
		<path class="st1" d="M95.8,12.9l11.4-8.2c2.2-1.6,5.4-1.1,7,1.1c1.6,2.2,1.1,5.4-1.2,7L101.7,21"/>
		<path class="st1" d="M105.2,25.9l9.8-7c1.3-1,1.7-2.8,0.7-4.2c-1-1.3-2.8-1.7-4.2-0.7l-9.8,7"/>
		<path class="st1" d="M108.7,30.8l6.5-4.7c1.3-1,1.7-2.8,0.7-4.2c-1-1.3-2.8-1.7-4.2-0.7l-6.5,4.7"/>
	</g>
	<ellipse class="st2" cx="79" cy="113" rx="21.5" ry="3.1"/>
	<rect x="62.5" y="23.5" class="st3" width="34" height="36"/>
	<g>
		<circle class="st4" cx="70.5" cy="25.5" r="9"/>
		<circle class="st4" cx="88.5" cy="25.5" r="9"/>
		<circle class="st1" cx="70.5" cy="23.5" r="9"/>
		<circle class="st5" cx="68.5" cy="25.5" r="1"/>
		<circle class="st1" cx="88.5" cy="23.5" r="9"/>
		<circle class="st5" cx="86.5" cy="25.5" r="1"/>
	</g>
	<g>
		<path class="st6" d="M69.7,50.6v-4.2h2.8v2.8l0,0h2.8l0,0V38h2.8v12.6c0,0.8-0.6,1.4-1.4,1.4h-5.6C70.3,52,69.7,51.3,69.7,50.6z"
			/>
		<path class="st6" d="M80.9,49.2h5.6l0,0v-2.9l0,0h-4.2c-0.8,0-1.4-0.6-1.4-1.4v-5.4c0-0.8,0.6-1.4,1.4-1.4h7v2.8h-5.6l0,0v2.9l0,0
			h4.2c0.8,0,1.4,0.6,1.4,1.4v0v5.4c0,0.8-0.6,1.4-1.4,1.4h-7V49.2z"/>
	</g>
</g>
<ellipse class="st2" cx="239" cy="113" rx="21.5" ry="3.1"/>
<rect x="160" class="st0" width="160" height="160"/>
<g>
	<g>
		<circle class="st1" cx="217.8" cy="21.4" r="11"/>
		<path class="st1" d="M224.6,12.8L213.7,4c-2.1-1.7-5.3-1.4-7,0.7s-1.4,5.3,0.7,7c0,0,0,0,0,0l10.9,8.7"/>
		<path class="st1" d="M214.6,25.3l-9.4-7.5c-1.3-1-1.5-2.9-0.5-4.2c1-1.3,2.9-1.5,4.2-0.5l9.4,7.5"/>
		<path class="st1" d="M210.9,30l-6.2-5c-1.3-1-1.5-2.9-0.5-4.2s2.9-1.5,4.2-0.5l6.2,5"/>
	</g>
	<g>
		<circle class="st1" cx="261.9" cy="22.4" r="11"/>
		<path class="st1" d="M255,13.8L266,5c2.1-1.7,5.3-1.4,7,0.7c1.7,2.1,1.4,5.3-0.7,7c0,0,0,0,0,0l-10.9,8.7"/>
		<path class="st1" d="M265,26.3l9.4-7.5c1.3-1.1,1.4-3,0.4-4.2c-1-1.2-2.8-1.4-4.1-0.5l-9.4,7.5"/>
		<path class="st1" d="M268.8,31l6.2-5c1.3-1,1.5-2.9,0.5-4.2c-1-1.3-2.9-1.5-4.2-0.5l-6.2,5"/>
	</g>
	<rect x="222.5" y="24.5" class="st3" width="34" height="36"/>
	<g>
		<circle class="st4" cx="230.5" cy="26.5" r="9"/>
		<circle class="st4" cx="248.5" cy="26.5" r="9"/>
		<circle class="st1" cx="230.5" cy="24.5" r="9"/>
		<circle class="st5" cx="228.5" cy="25.5" r="1"/>
		<circle class="st1" cx="248.5" cy="24.5" r="9"/>
		<circle class="st5" cx="246.5" cy="25.5" r="1"/>
	</g>
	<g>
		<path class="st6" d="M229.7,51.6v-4.2h2.8v2.8l0,0h2.8l0,0V39h2.8v12.6c0,0.8-0.6,1.4-1.4,1.4h-5.6
			C230.3,53,229.7,52.3,229.7,51.6z"/>
		<path class="st6" d="M240.9,50.2h5.6l0,0v-2.9l0,0h-4.2c-0.8,0-1.4-0.6-1.4-1.4v-5.4c0-0.8,0.6-1.4,1.4-1.4h7v2.8h-5.6l0,0v2.9
			l0,0h4.2c0.8,0,1.4,0.6,1.4,1.4v5.4c0,0.8-0.6,1.4-1.4,1.4h-7L240.9,50.2z"/>
	</g>
</g>
<ellipse class="st2" cx="399" cy="113" rx="21.5" ry="3.1"/>
<rect x="320" class="st0" width="160" height="160"/>
<g>
	<g>
		<circle class="st1" cx="378.3" cy="25.8" r="11"/>
		<path class="st1" d="M385.7,17.7l-10.3-9.5c-2-1.9-5.2-1.8-7.1,0.3s-1.8,5.2,0.3,7.1c0,0,0,0,0,0l10.3,9.5"/>
		<path class="st1" d="M374.9,29.5l-8.8-8.1c-1.2-1.1-1.3-3-0.2-4.2c1.1-1.2,3-1.3,4.2-0.2c0,0,0,0,0,0l8.8,8.1"/>
		<path class="st1" d="M370.8,33.9l-5.9-5.4c-1.2-1.1-1.3-3-0.1-4.2c1.1-1.2,3-1.3,4.2-0.2l5.9,5.4"/>
	</g>
	<g>
		<circle class="st1" cx="421.4" cy="26.8" r="11"/>
		<path class="st1" d="M414,18.7l10.3-9.5c2-1.9,5.2-1.7,7.1,0.3c1.8,2,1.7,5.2-0.3,7l-10.3,9.5"/>
		<path class="st1" d="M424.8,30.5l8.8-8.1c1.2-1.1,1.3-3,0.1-4.2c-1.1-1.2-3-1.3-4.2-0.2l-8.8,8.1"/>
		<path class="st1" d="M428.9,34.9l5.9-5.4c1.2-1.1,1.3-3,0.2-4.2c-1.1-1.2-3-1.3-4.2-0.2c0,0,0,0,0,0l-5.9,5.4"/>
	</g>
	<rect x="382.5" y="29.5" class="st3" width="34" height="36"/>
	<g>
		<circle class="st4" cx="390.5" cy="31.5" r="9"/>
		<circle class="st4" cx="408.5" cy="31.5" r="9"/>
		<circle class="st1" cx="390.5" cy="29.5" r="9"/>
		<circle class="st5" cx="388.5" cy="27.5" r="1"/>
		<circle class="st1" cx="408.5" cy="29.5" r="9"/>
		<circle class="st5" cx="406.5" cy="27.5" r="1"/>
	</g>
	<g>
		<path class="st6" d="M389.7,56.6v-4.2h2.8v2.8l0,0h2.8l0,0V44h2.8v12.6c0,0.8-0.6,1.4-1.4,1.4h-5.6
			C390.3,58,389.7,57.3,389.7,56.6z"/>
		<path class="st6" d="M400.9,55.2h5.6l0,0v-2.9l0,0h-4.2c-0.8,0-1.4-0.6-1.4-1.4v-5.4c0-0.8,0.6-1.4,1.4-1.4h7v2.8h-5.6l0,0v2.9
			l0,0h4.2c0.8,0,1.4,0.6,1.4,1.4v5.4c0,0.8-0.6,1.4-1.4,1.4h-7L400.9,55.2z"/>
	</g>
</g>
<ellipse class="st2" cx="559" cy="113" rx="21.5" ry="3.1"/>
<rect x="480" class="st0" width="160" height="160"/>
<g>
	<g>
		<ellipse class="st1" cx="536.4" cy="35.2" rx="11.4" ry="10.7"/>
		<path class="st1" d="M529.9,26.4l-12,7.7c-2.2,1.3-2.9,4.2-1.6,6.4c0.1,0.1,0.2,0.2,0.2,0.4c1.7,2.2,4.9,2.8,7.2,1.3l12-7.7"/>
		<path class="st1" d="M539.3,39.2L529,45.8c-1.4,0.9-3.3,0.6-4.3-0.8c-0.9-1.2-0.6-3,0.6-3.9c0.1-0.1,0.1-0.1,0.2-0.1l10.3-6.6"/>
		<path class="st1" d="M542.8,44l-6.9,4.4c-1.4,0.9-3.3,0.6-4.3-0.8c-0.9-1.2-0.6-3,0.6-3.9c0.1-0.1,0.1-0.1,0.2-0.1l6.9-4.4"/>
	</g>
	<g>
		<ellipse class="st1" cx="583.3" cy="36.2" rx="11.4" ry="10.7"/>
		<path class="st1" d="M589.8,27.4l12,7.7c2.2,1.3,2.9,4.2,1.6,6.4c-0.1,0.1-0.2,0.2-0.2,0.4c-1.7,2.2-4.9,2.8-7.2,1.3l-12-7.7"/>
		<path class="st1" d="M580.4,40.2l10.3,6.6c1.4,0.9,3.3,0.6,4.3-0.8c0.9-1.2,0.6-3-0.6-3.9c-0.1-0.1-0.1-0.1-0.2-0.1l-10.3-6.6"/>
		<path class="st1" d="M576.8,45l6.9,4.4c1.4,0.9,3.3,0.6,4.3-0.8c0.9-1.2,0.6-3-0.6-3.9c-0.1-0.1-0.1-0.1-0.2-0.1l-6.9-4.4"/>
	</g>
	<rect x="541.8" y="25.6" class="st3" width="35.4" height="34.9"/>
	<g>
		<ellipse class="st4" cx="550.1" cy="27.5" rx="9.4" ry="8.7"/>
		<ellipse class="st4" cx="568.8" cy="27.5" rx="9.4" ry="8.7"/>
		<ellipse class="st1" cx="550.1" cy="25.6" rx="9.4" ry="8.7"/>
		<ellipse class="st5" cx="548" cy="27.5" rx="1" ry="1"/>
		<ellipse class="st1" cx="568.8" cy="25.6" rx="9.4" ry="8.7"/>
		<ellipse class="st5" cx="566.8" cy="27.5" rx="1" ry="1"/>
	</g>
	<g>
		<path class="st6" d="M549.3,51.8v-4.1h2.9v2.7l0,0h2.9l0,0V39.6h2.9v12.2c0,0.8-0.7,1.4-1.5,1.4h-5.8
			C550,53.2,549.3,52.6,549.3,51.8z"/>
		<path class="st6" d="M560.9,50.5h5.8l0,0v-2.8l0,0h-4.3c-0.8,0-1.4-0.6-1.5-1.4V41c0-0.8,0.7-1.4,1.5-1.4h7.3v2.7h-5.8l0,0v2.8
			l0,0h4.3c0.8,0,1.4,0.6,1.5,1.4v5.3c0,0.8-0.7,1.4-1.5,1.4h-7.3L560.9,50.5z"/>
	</g>
</g>
<ellipse class="st2" cx="719" cy="113" rx="21.5" ry="3.1"/>
<rect x="640" class="st0" width="160" height="160"/>
<g>
	<g>
		<ellipse class="st1" cx="699.2" cy="33.1" rx="10.2" ry="11.4"/>
		<path class="st1" d="M693,24l-10.3,8.8c-2.1,1.9-2.4,4.9-0.9,7.2c1.3,2,3.9,2.6,6,1.4c0.2-0.1,0.4-0.2,0.5-0.4l10.3-8.8"/>
		<path class="st1" d="M702,37.2l-8.8,7.5c-1.1,0.9-2.7,0.8-3.7-0.3c-0.1-0.1-0.2-0.2-0.2-0.3c-0.9-1.4-0.7-3.2,0.5-4.3l8.8-7.5"/>
		<path class="st1" d="M705.4,42.1l-5.9,5c-1.1,0.9-2.7,0.8-3.7-0.3c-0.1-0.1-0.2-0.2-0.2-0.3c-0.9-1.4-0.7-3.2,0.5-4.3l5.9-5"/>
	</g>
	<g>
		<ellipse class="st1" cx="740.4" cy="34.1" rx="10.2" ry="11.4"/>
		<path class="st1" d="M746.6,25l10.3,8.8c2.1,1.9,2.4,4.9,0.9,7.2c-1.3,2-3.9,2.6-6,1.4c-0.2-0.1-0.4-0.2-0.5-0.4L741,33.3"/>
		<path class="st1" d="M737.6,38.2l8.8,7.5c1.1,0.9,2.7,0.8,3.7-0.3c0.1-0.1,0.2-0.2,0.2-0.3c0.9-1.4,0.7-3.2-0.5-4.3l-8.8-7.5"/>
		<path class="st1" d="M734.2,43.1l5.9,5c1.1,0.9,2.7,0.8,3.7-0.3c0.1-0.1,0.2-0.2,0.2-0.3c0.9-1.4,0.7-3.2-0.5-4.3l-5.9-5"/>
	</g>
	<rect x="703.8" y="22.3" class="st3" width="31.5" height="37.2"/>
	<g>
		<ellipse class="st4" cx="711.2" cy="24.4" rx="8.3" ry="9.3"/>
		<ellipse class="st4" cx="727.9" cy="24.4" rx="8.3" ry="9.3"/>
		<ellipse class="st1" cx="711.2" cy="22.3" rx="8.3" ry="9.3"/>
		<ellipse class="st5" cx="709.3" cy="24.9" rx="0.9" ry="1"/>
		<ellipse class="st1" cx="727.9" cy="22.3" rx="8.3" ry="9.3"/>
		<ellipse class="st5" cx="726" cy="24.9" rx="0.9" ry="1"/>
	</g>
	<g>
		<path class="st6" d="M710.4,50.3v-4.3h2.6v2.9l0,0h2.6l0,0V37.2h2.6v13c0,0.8-0.5,1.4-1.3,1.4h-5.2C711,51.7,710.4,51,710.4,50.3z
			"/>
		<path class="st6" d="M720.8,48.8h5.2l0,0v-3l0,0h-3.9c-0.8,0-1.3-0.7-1.3-1.4v-5.6c0-0.8,0.5-1.4,1.3-1.4h6.5v2.9h-5.2l0,0v3l0,0
			h3.9c0.8,0,1.3,0.7,1.3,1.4v5.6c0,0.8-0.5,1.4-1.3,1.4h-6.5L720.8,48.8z"/>
	</g>
</g>
</svg>
