<?xml version="1.0" encoding="utf-8"?>
<!-- Generator: Adobe Illustrator 23.0.2, SVG Export Plug-In . SVG Version: 6.00 Build 0)  -->
<svg version="1.1" id="Layer_1" xmlns="http://www.w3.org/2000/svg" xmlns:xlink="http://www.w3.org/1999/xlink" x="0px" y="0px"
	 width="800px" height="160px" viewBox="0 0 800 160" style="enable-background:new 0 0 800 160;" xml:space="preserve">
<style type="text/css">
	.st0{fill:#000001;stroke:#000001;stroke-width:3;stroke-linecap:round;}
	.st1{fill:#F8F8F8;stroke:#000001;stroke-width:3;stroke-linecap:round;stroke-linejoin:round;}
	.st2{fill:#000001;stroke:#000001;stroke-width:3;stroke-linecap:round;stroke-linejoin:round;}
	.st3{fill:#000001;stroke:#000001;stroke-width:3;}
	.st4{fill:#000001;}
	.st5{fill:none;}
</style>
<title>sanity-hopping</title>
<ellipse class="st0" cx="80" cy="123" rx="48.1" ry="5.5"/>
<g>
	<path class="st1" d="M67.2,84.7l22-0.8c19.9-0.7,36.5,14.8,37.2,34.7l0,0l0,0L32.5,122l0,0l0,0C31.8,102.1,47.3,85.4,67.2,84.7z"/>
	<g>
		<circle class="st2" cx="69.3" cy="86.7" r="9"/>
		<circle class="st2" cx="87.3" cy="86.1" r="9"/>
		<circle class="st1" cx="69.2" cy="84.7" r="9"/>
		<circle class="st3" cx="67.3" cy="85.8" r="1"/>
		<circle class="st1" cx="87.2" cy="84.1" r="9"/>
		<circle class="st3" cx="85.3" cy="85.1" r="1"/>
	</g>
	<g>
		<path class="st4" d="M48.4,111.1l5.6-0.2l0,0l-0.1-2.9l0,0l-4.2,0.1c-0.8,0-1.4-0.6-1.4-1.3l-0.2-5.4c0-0.8,0.6-1.4,1.4-1.4l7-0.2
			l0.1,2.8l-5.6,0.2l0,0l0.1,2.9l0,0l4.2-0.1c0.8,0,1.4,0.6,1.4,1.4l0.2,5.4c0,0.8-0.6,1.4-1.3,1.4l-7,0.2L48.4,111.1z"/>
		<path class="st4" d="M69,100.6l0.4,12.6l-2.8,0.1l-0.2-4.5l-4.2,0.1l0.2,4.5l-2.8,0.1l-0.4-12.6c0-0.8,0.6-1.4,1.3-1.4l0,0l7-0.2
			C68.3,99.2,69,99.8,69,100.6L69,100.6z M66.4,106.5l-0.2-4.4l0,0l-4.2,0.1l0,0l0.2,4.4L66.4,106.5z"/>
		<path class="st4" d="M71.8,99.1l3.3-0.1l3.6,8.8h0.2l-0.3-8.9l2.6-0.1l0.5,14l-3.3,0.1l-3.6-8.8h-0.2l0.3,8.9l-2.6,0.1L71.8,99.1z
			"/>
		<path class="st4" d="M83.9,98.7l2.8-0.1l0.5,14l-2.8,0.1L83.9,98.7z"/>
		<path class="st4" d="M98,101l-2.8,0.1l0.4,11.2l-2.8,0.1l-0.4-11.2l-2.8,0.1l-0.1-2.8l8.4-0.3L98,101z"/>
		<path class="st4" d="M104.1,107.8l-1.7,0.1l-2.3-9.8l2.8-0.1l1.5,7.6h2l1-7.7l2.8-0.1l-1.6,9.9l-1.7,0.1l0.1,4.1l-2.8,0.1
			L104.1,107.8z"/>
	</g>
</g>
<rect class="st5" width="160" height="160"/>
<ellipse class="st0" cx="240" cy="123" rx="48.3" ry="5.5"/>
<g>
	<path class="st1" d="M227.1,86.2l22-0.8c19.9-0.7,36.5,14.8,37.2,34.7l0,0l0,0l0,0l-93.9,3.3l0,0l0,0
		C191.7,103.6,207.3,86.9,227.1,86.2z"/>
	<g>
		<circle class="st2" cx="229.3" cy="88.2" r="9"/>
		<ellipse transform="matrix(0.4641 -0.8858 0.8858 0.4641 54.9648 265.9381)" class="st2" cx="247.3" cy="87.5" rx="9" ry="9"/>
		<circle class="st1" cx="229.2" cy="86.2" r="9"/>
		<circle class="st3" cx="227.3" cy="86.8" r="1"/>
		<ellipse transform="matrix(0.4641 -0.8858 0.8858 0.4641 56.6583 264.8902)" class="st1" cx="247.2" cy="85.6" rx="9" ry="9"/>
		<circle class="st3" cx="245.3" cy="86.1" r="1"/>
	</g>
	<g>
		<path class="st4" d="M208.4,112.6l5.6-0.2l0,0l-0.1-2.9l0,0l-4.2,0.1c-0.8,0-1.4-0.6-1.4-1.3l-0.2-5.4c0-0.8,0.6-1.4,1.3-1.4l0,0
			l7-0.2l0.1,2.8l-5.6,0.2l0,0l0.1,2.9l0,0l4.2-0.1c0.8,0,1.4,0.6,1.4,1.4l0,0l0.2,5.4c0,0.8-0.6,1.4-1.4,1.4l-7,0.2L208.4,112.6z"
			/>
		<path class="st4" d="M229,102.1l0.4,12.6l-2.8,0.1l-0.2-4.5l-4.2,0.1l0.2,4.5l-2.8,0.1l-0.4-12.6c0-0.8,0.6-1.4,1.3-1.4l0,0l7-0.2
			C228.3,100.7,229,101.3,229,102.1L229,102.1z M226.4,108l-0.2-4.4l0,0l-4.2,0.1l0,0l0.2,4.4L226.4,108z"/>
		<path class="st4" d="M231.8,100.6l3.3-0.1l3.6,8.8h0.2l-0.3-8.9l2.6-0.1l0.5,14l-3.3,0.1l-3.6-8.8h-0.2l0.3,8.9l-2.6,0.1
			L231.8,100.6z"/>
		<path class="st4" d="M243.9,100.2l2.8-0.1l0.5,14l-2.8,0.1L243.9,100.2z"/>
		<path class="st4" d="M258,102.5l-2.8,0.1l0.4,11.2l-2.8,0.1l-0.4-11.2l-2.8,0.1l-0.1-2.8l8.4-0.3L258,102.5z"/>
		<path class="st4" d="M264.1,109.3l-1.7,0.1l-2.3-9.8l2.8-0.1l1.5,7.6h2l1-7.7l2.8-0.1l-1.6,9.9l-1.7,0.1l0.1,4.1l-2.8,0.1
			L264.1,109.3z"/>
	</g>
</g>
<rect x="160" class="st5" width="160" height="160"/>
<ellipse class="st0" cx="400" cy="123" rx="49.2" ry="5.5"/>
<g>
	<path class="st1" d="M385.8,88.7h28.8c19.1,0,34.5,15.5,34.5,34.5l0,0v0.3l0,0h-97.9l0,0v-0.3C351.3,104.2,366.8,88.7,385.8,88.7
		L385.8,88.7z"/>
	<g>
		<ellipse class="st2" cx="390.9" cy="90.6" rx="9.4" ry="8.7"/>
		<ellipse class="st2" cx="409.6" cy="90.6" rx="9.4" ry="8.7"/>
		<ellipse class="st1" cx="390.9" cy="88.7" rx="9.4" ry="8.7"/>
		<ellipse class="st3" cx="388.8" cy="90.6" rx="1" ry="1"/>
		<ellipse class="st1" cx="409.6" cy="88.7" rx="9.4" ry="8.7"/>
		<ellipse class="st3" cx="407.5" cy="90.6" rx="1" ry="1"/>
	</g>
	<g>
		<path class="st4" d="M368.2,113.5h5.8l0,0v-2.8l0,0h-4.4c-0.8,0-1.4-0.6-1.5-1.4v-5.2c0-0.8,0.7-1.4,1.5-1.4h7.3v2.7h-5.8l0,0v2.8
			l0,0h4.3c0.8,0,1.4,0.6,1.5,1.4v5.2c0,0.8-0.7,1.4-1.5,1.4h-7.3v-2.7H368.2z"/>
		<path class="st4" d="M390.1,104v12.2h-2.9v-4.3h-4.4v4.3h-2.9V104c0-0.8,0.7-1.4,1.5-1.4h7.3C389.4,102.6,390,103.2,390.1,104
			L390.1,104z M387.1,109.7v-4.3l0,0h-4.3l0,0v4.3H387.1z"/>
		<path class="st4" d="M393,102.7h3.5l3.4,8.6h0.2v-8.6h2.7v13.5h-3.5l-3.4-8.6h-0.2v8.6H393V102.7z"/>
		<path class="st4" d="M405.7,102.7h2.9v13.5h-2.9V102.7z"/>
		<path class="st4" d="M420.2,105.4h-2.9v10.8h-2.9v-10.8h-2.9v-2.7h8.7L420.2,105.4z"/>
		<path class="st4" d="M426.3,112.2h-1.7l-2.1-9.6h2.9l1.3,7.4h2.1l1.3-7.4h2.9l-2.1,9.6h-1.7v4h-2.9L426.3,112.2z"/>
	</g>
</g>
<rect x="320" class="st5" width="160" height="160"/>
<ellipse class="st0" cx="560" cy="123" rx="46.8" ry="5.5"/>
<g>
	<path class="st1" d="M551.4,79.4l18.9,0.7c19.9,0.7,35.4,17.4,34.7,37.2v1.2l0,0l-90.8-3.2l0,0v-1.2
		C514.9,94.2,531.5,78.7,551.4,79.4z"/>
	<g>
		
			<ellipse transform="matrix(3.489886e-02 -0.9994 0.9994 3.489886e-02 451.4411 630.3009)" class="st2" cx="552.1" cy="81.4" rx="9.3" ry="8.7"/>
		
			<ellipse transform="matrix(3.489886e-02 -0.9994 0.9994 3.489886e-02 467.6375 648.2386)" class="st2" cx="569.5" cy="82" rx="9.3" ry="8.7"/>
		
			<ellipse transform="matrix(3.489886e-02 -0.9994 0.9994 3.489886e-02 453.4305 628.4404)" class="st1" cx="552.1" cy="79.4" rx="9.3" ry="8.7"/>
		<ellipse class="st3" cx="550.1" cy="81.4" rx="1" ry="1"/>
		
			<ellipse transform="matrix(3.489886e-02 -0.9994 0.9994 3.489886e-02 469.6249 646.3802)" class="st1" cx="569.5" cy="80" rx="9.3" ry="8.7"/>
		<ellipse class="st3" cx="567.5" cy="82" rx="1" ry="1"/>
	</g>
	<g>
		<path class="st4" d="M530.2,105.2l5.4,0.2l0,0l0.1-3l0,0l-4-0.1c-0.8-0.1-1.4-0.7-1.3-1.5l0.2-5.6c0-0.8,0.6-1.4,1.4-1.4l6.8,0.2
			l-0.1,2.9l-5.4-0.2l0,0l-0.1,3l0,0l4,0.1c0.8,0.1,1.4,0.7,1.3,1.5l-0.2,5.6c0,0.8-0.6,1.4-1.4,1.4l-6.8-0.2L530.2,105.2z"/>
		<path class="st4" d="M550.8,95.8l-0.5,13l-2.7-0.1l0.2-4.6l-4.1-0.1l-0.2,4.6l-2.7-0.1l0.5-13c0-0.8,0.6-1.4,1.4-1.4l6.8,0.2
			C550.3,94.3,550.9,95,550.8,95.8C550.8,95.7,550.8,95.8,550.8,95.8z M547.9,101.7l0.2-4.6l0,0l-4-0.1l0,0l-0.2,4.6L547.9,101.7z"
			/>
		<path class="st4" d="M553.6,94.4l3.2,0.1l2.8,9.3h0.2l0.3-9.2l2.5,0.1l-0.5,14.5l-3.2-0.1l-2.8-9.3h-0.2l-0.3,9.2l-2.5-0.1
			L553.6,94.4z"/>
		<path class="st4" d="M565.4,94.8l2.7,0.1l-0.5,14.5l-2.7-0.1L565.4,94.8z"/>
		<path class="st4" d="M578.8,98.2l-2.7-0.1l-0.4,11.6l-2.7-0.1l0.4-11.6l-2.7-0.1l0.1-2.9l8.1,0.3L578.8,98.2z"/>
		<path class="st4" d="M584.1,105.7l-1.6-0.1l-1.6-10.3l2.7,0.1l0.9,8l2,0.1l1.5-7.9l2.7,0.1l-2.3,10.1l-1.6-0.1l-0.1,4.3H584
			L584.1,105.7z"/>
	</g>
</g>
<rect x="480" class="st5" width="160" height="160"/>
<ellipse class="st0" cx="720" cy="123" rx="48.7" ry="5.5"/>
<g>
	<path class="st1" d="M708.5,80h22c19.9,0,36,16.1,36,36l0,0l0,0h-94l0,0l0,0C672.5,96.1,688.6,80,708.5,80z"/>
	<g>
		<circle class="st2" cx="710.5" cy="82" r="9"/>
		<circle class="st2" cx="728.5" cy="82" r="9"/>
		<circle class="st1" cx="710.5" cy="80" r="9"/>
		<circle class="st3" cx="708.5" cy="80" r="1"/>
		<circle class="st1" cx="728.5" cy="80" r="9"/>
		<circle class="st3" cx="726.5" cy="80" r="1"/>
	</g>
	<g>
		<path class="st4" d="M688.7,105.7h5.6l0,0v-2.9l0,0h-4.2c-0.8,0-1.4-0.6-1.4-1.4V96c0-0.8,0.6-1.4,1.4-1.4h7v2.8h-5.6l0,0v2.9l0,0
			h4.2c0.8,0,1.4,0.6,1.4,1.4v5.4c0,0.8-0.6,1.4-1.4,1.4h-7V105.7z"/>
		<path class="st4" d="M709.7,95.9v12.6h-2.8V104h-4.2v4.5h-2.8V95.9c0-0.8,0.6-1.4,1.4-1.4l0,0h7C709.1,94.4,709.7,95.1,709.7,95.9
			C709.7,95.8,709.7,95.8,709.7,95.9z M706.9,101.7v-4.4l0,0h-4.2l0,0v4.4H706.9z"/>
		<path class="st4" d="M712.5,94.5h3.3l3.3,8.9h0.2v-8.9h2.6v14h-3.3l-3.3-8.9h-0.2v8.9h-2.6V94.5z"/>
		<path class="st4" d="M724.7,94.5h2.8v14h-2.8V94.5z"/>
		<path class="st4" d="M738.7,97.3h-2.8v11.2h-2.8V97.3h-2.8v-2.8h8.4L738.7,97.3z"/>
		<path class="st4" d="M744.5,104.3h-1.7l-2-9.9h2.8l1.3,7.7h2l1.3-7.7h2.8l-2,9.9h-1.7v4.1h-2.8L744.5,104.3z"/>
	</g>
</g>
<rect x="640" class="st5" width="160" height="160"/>
</svg>
