<?xml version="1.0" standalone="no"?>
<!DOCTYPE svg PUBLIC "-//W3C//DTD SVG 20010904//EN"
 "http://www.w3.org/TR/2001/REC-SVG-20010904/DTD/svg10.dtd">
<svg version="1.0" xmlns="http://www.w3.org/2000/svg"
 width="512.000000pt" height="512.000000pt" viewBox="0 0 512.000000 512.000000"
 preserveAspectRatio="xMidYMid meet">
<metadata>
Created by potrace 1.11, written by Peter Selinger 2001-2013
</metadata>
<g transform="translate(0.000000,512.000000) scale(0.100000,-0.100000)"
fill="#000000" stroke="none">
<path d="M2060 5104 c-428 -91 -936 -482 -1244 -956 -116 -178 -216 -421 -232
-565 -7 -53 -7 -53 -65 -84 -187 -100 -291 -358 -248 -619 5 -36 20 -95 33
-132 l22 -68 -38 -30 c-100 -81 -208 -252 -254 -405 -25 -81 -28 -105 -28
-240 0 -135 3 -159 27 -238 30 -96 62 -167 110 -237 146 -216 380 -356 632
-379 l70 -6 45 -86 c239 -450 655 -801 1139 -959 498 -163 1026 -126 1496 104
412 201 734 527 931 941 140 294 202 597 191 930 -8 250 -53 465 -142 688 -25
61 -44 111 -42 112 1 1 31 12 67 24 344 122 570 339 587 564 21 280 -236 500
-692 592 -67 14 -136 25 -153 25 -60 0 -59 8 6 77 258 273 286 566 75 763
-289 271 -970 265 -1620 -14 l-83 -35 -36 55 c-85 128 -226 195 -409 193 -44
0 -109 -7 -145 -15z m-16 -1886 c247 -163 539 -283 834 -343 70 -14 166 -35
213 -47 l87 -22 -5 -55 c-5 -67 16 -114 67 -148 39 -27 130 -31 170 -8 37 21
109 19 147 -5 18 -11 45 -37 60 -59 53 -75 142 -101 219 -65 43 21 84 88 84
138 0 37 -29 105 -58 139 -12 14 -13 17 -1 17 8 0 68 7 134 15 66 8 126 15
132 15 29 0 122 -233 161 -405 50 -217 55 -496 12 -700 -127 -607 -554 -1093
-1124 -1280 -187 -61 -306 -79 -521 -80 -224 0 -322 15 -522 80 -250 82 -445
200 -640 389 -121 116 -192 203 -271 331 l-50 81 38 22 c80 46 102 163 43 232
-55 66 -112 74 -236 35 -393 -126 -777 230 -682 633 38 161 160 308 310 372
l47 20 6 -22 c3 -13 26 -63 51 -113 63 -124 173 -236 285 -291 78 -38 82 -39
190 -39 104 0 115 2 179 32 172 82 270 264 270 503 0 169 -41 312 -128 444
-25 38 -44 70 -43 71 2 2 28 15 57 30 70 35 202 117 266 166 l49 38 41 -31
c22 -17 80 -57 129 -90z"/>
<path d="M2277 2920 c-108 -28 -224 -113 -287 -210 -77 -120 -11 -260 124
-260 63 0 106 24 141 80 47 75 128 100 212 65 119 -50 233 19 233 141 0 72
-28 111 -113 153 -62 31 -77 35 -170 37 -56 2 -119 -1 -140 -6z"/>
<path d="M2295 2337 c-149 -50 -241 -152 -220 -246 29 -132 178 -174 282 -79
27 25 85 26 119 2 66 -47 81 -54 122 -54 103 0 177 91 158 193 -10 54 -68 112
-153 154 -69 34 -84 38 -172 40 -60 2 -111 -2 -136 -10z"/>
<path d="M3322 2332 c-70 -25 -157 -86 -183 -129 -27 -44 -29 -120 -3 -164 33
-55 68 -74 139 -74 55 0 68 4 101 31 66 52 99 50 183 -11 68 -50 176 -22 220
55 56 100 -1 206 -149 277 -74 36 -227 43 -308 15z"/>
<path d="M1885 1706 c-60 -28 -87 -56 -114 -116 -52 -114 2 -260 113 -311 88
-40 210 -18 274 49 61 66 81 185 43 267 -20 46 -79 101 -127 121 -52 22 -131
17 -189 -10z"/>
<path d="M3785 1719 c-45 -12 -110 -72 -134 -122 -27 -56 -28 -146 -2 -202 39
-84 120 -135 216 -135 213 0 316 250 165 400 -63 64 -154 86 -245 59z"/>
<path d="M2703 1579 c-75 -22 -124 -112 -103 -190 34 -125 236 -221 404 -192
150 26 276 129 276 226 0 145 -156 211 -275 117 -47 -37 -81 -38 -131 -3 -41
28 -99 52 -124 52 -8 -1 -29 -5 -47 -10z"/>
</g>
</svg>
