<?xml version="1.0" encoding="utf-8"?>
<!-- Generator: Adobe Illustrator 23.0.2, SVG Export Plug-In . SVG Version: 6.00 Build 0)  -->
<svg version="1.1" id="Layer_1" xmlns="http://www.w3.org/2000/svg" xmlns:xlink="http://www.w3.org/1999/xlink" x="0px" y="0px"
	 width="1000px" height="200px" viewBox="0 0 1000 200" style="enable-background:new 0 0 1000 200;" xml:space="preserve">
<style type="text/css">
	.st0{fill:#000001;stroke:#000001;stroke-width:3;stroke-linecap:round;}
	.st1{fill:none;}
	.st2{fill:#000001;stroke:#000001;stroke-width:3;stroke-linecap:round;stroke-linejoin:round;}
	.st3{fill:#F8F8F8;stroke:#000001;stroke-width:3;stroke-linecap:round;stroke-linejoin:round;}
	.st4{fill:#000001;stroke:#000001;stroke-width:3;}
	.st5{fill:none;stroke:#000000;stroke-width:38;stroke-linecap:round;stroke-linejoin:round;}
	.st6{fill:none;stroke:#FB3600;stroke-width:32;stroke-linecap:round;stroke-linejoin:round;}
	.st7{fill:#000001;}
</style>
<title>artdesign-crawling</title>
<ellipse class="st0" cx="95" cy="145" rx="79.5" ry="3.1"/>
<g>
	<rect class="st1" width="200" height="200"/>
	<g>
		<g>
			<circle class="st2" cx="181.5" cy="110.5" r="9"/>
			<circle class="st3" cx="181.5" cy="108.5" r="9"/>
			<circle class="st4" cx="184.5" cy="108.5" r="1"/>
		</g>
		<g>
			<path class="st5" d="M32,127h33v-17.5C65,99.8,72.8,92,82.5,92l0,0c9.7,0,17.5,7.8,17.5,17.5l0.1,17.5H167"/>
			<path class="st6" d="M32,127h33v-17.5C65,99.8,72.8,92,82.5,92l0,0c9.7,0,17.5,7.8,17.5,17.5l0.1,17.5H167"/>
		</g>
		<g>
			<path class="st7" d="M99,122.4c0-0.8,0.6-1.4,1.4-1.4h4.2c0.4,0,0.7,0.2,1,0.4l3.2,3.2c0.3,0.3,0.4,0.6,0.4,1v4.8
				c0,0.4-0.2,0.7-0.4,1l-3.2,3.2c-0.3,0.3-0.6,0.4-1,0.4h-4.2c-0.8,0-1.4-0.6-1.4-1.4V122.4z M101.8,132.2h2.2l2.4-2.4v-3.6
				l-2.4-2.4h-2.2l0,0V132.2L101.8,132.2z"/>
			<path class="st7" d="M114.8,123.8v3h4.2v2.4h-4.2v3h5.6v2.8H112v-14h8.4v2.8H114.8z"/>
			<path class="st7" d="M123.2,132.2h5.6l0,0v-2.9l0,0h-4.2c-0.8,0-1.4-0.6-1.4-1.4v-5.4c0-0.8,0.6-1.4,1.4-1.4h7v2.8H126l0,0v2.9
				l0,0h4.2c0.8,0,1.4,0.6,1.4,1.4v5.4c0,0.8-0.6,1.4-1.4,1.4h-7V132.2z"/>
			<path class="st7" d="M134.4,121h2.8v14h-2.8V121z"/>
			<path class="st7" d="M140,133.6v-11.2c0-0.8,0.6-1.4,1.4-1.4h7.7v2.8h-6.3l0,0v8.4l0,0h4.2l0,0v-1l-2.3-2.3l1.9-1.9l2.8,2.8
				c0.3,0.3,0.4,0.6,0.4,1v2.8c0,0.8-0.6,1.4-1.4,1.4h-7C140.6,135,140,134.3,140,133.6z"/>
			<path class="st7" d="M152.6,121h3.3l3.3,8.9h0.2V121h2.6v14h-3.3l-3.3-8.9h-0.2v8.9h-2.6V121z"/>
		</g>
		<g>
			<circle class="st2" cx="168.5" cy="110.5" r="9"/>
			<circle class="st3" cx="168.5" cy="108.5" r="9"/>
			<circle class="st4" cx="166.5" cy="108.5" r="1"/>
		</g>
		<g>
			<path class="st7" d="M43.5,122.4V135h-2.8v-4.5h-4.2v4.5h-2.8v-12.6c0-0.8,0.6-1.4,1.4-1.4l0,0h7
				C42.9,120.9,43.5,121.6,43.5,122.4C43.5,122.3,43.5,122.3,43.5,122.4z M40.7,128.2v-4.4l0,0h-4.2l0,0v4.4H40.7z"/>
			<path class="st7" d="M46.3,121h8.4c0.8,0,1.4,0.6,1.4,1.4l0,0v6l-2,0.9v0.3l2,0.9v4.6h-2.8v-4.4l0,0h-4.2v4.4h-2.8V121z
				 M53.3,128.2L53.3,128.2v-4.4l0,0h-4.2v4.5L53.3,128.2z"/>
			<path class="st7" d="M67.3,123.8h-2.8V135h-2.8v-11.2h-2.8V121h8.4V123.8z"/>
		</g>
	</g>
</g>
<g>
	<rect x="200" class="st1" width="200" height="200"/>
	<g>
		<g>
			<circle class="st2" cx="384.5" cy="110.5" r="9"/>
			<circle class="st3" cx="384.5" cy="108.5" r="9"/>
			<circle class="st4" cx="387.5" cy="108.5" r="1"/>
		</g>
		<ellipse class="st0" cx="295" cy="145" rx="81" ry="3.1"/>
		<g>
			<path class="st5" d="M229,127h35v-17.5c0-9.7,8.9-17.5,18.5-17.5l0,0c9.7,0,18.5,7.8,18.5,17.5l0.1,17.5H370"/>
			<path class="st6" d="M229,127h35v-17.5c0-9.7,8.9-17.5,18.5-17.5l0,0c9.7,0,18.5,7.8,18.5,17.5l0.1,17.5H370"/>
		</g>
		<g>
			<path class="st7" d="M302,122.4c0-0.8,0.6-1.4,1.4-1.4h4.2c0.4,0,0.7,0.2,1,0.4l3.2,3.2c0.3,0.3,0.4,0.6,0.4,1v4.8
				c0,0.4-0.2,0.7-0.4,1l-3.2,3.2c-0.3,0.3-0.6,0.4-1,0.4h-4.2c-0.8,0-1.4-0.6-1.4-1.4V122.4z M304.8,132.2h2.2l2.4-2.4v-3.6
				l-2.4-2.4h-2.2l0,0V132.2L304.8,132.2z"/>
			<path class="st7" d="M317.8,123.8v3h4.2v2.4h-4.2v3h5.6v2.8H315v-14h8.4v2.8H317.8z"/>
			<path class="st7" d="M326.2,132.2h5.6l0,0v-2.9l0,0h-4.2c-0.8,0-1.4-0.6-1.4-1.4v-5.4c0-0.8,0.6-1.4,1.4-1.4h7v2.8H329l0,0v2.9
				l0,0h4.2c0.8,0,1.4,0.6,1.4,1.4v5.4c0,0.8-0.6,1.4-1.4,1.4h-7V132.2z"/>
			<path class="st7" d="M337.4,121h2.8v14h-2.8V121z"/>
			<path class="st7" d="M343,133.6v-11.2c0-0.8,0.6-1.4,1.4-1.4h7.7v2.8h-6.3l0,0v8.4l0,0h4.2l0,0v-1l-2.3-2.3l1.9-1.9l2.8,2.8
				c0.3,0.3,0.4,0.6,0.4,1v2.8c0,0.8-0.6,1.4-1.4,1.4h-7C343.6,135,343,134.3,343,133.6z"/>
			<path class="st7" d="M355.6,121h3.3l3.3,8.9h0.2V121h2.6v14h-3.3l-3.3-8.9h-0.2v8.9h-2.6V121z"/>
		</g>
		<g>
			<circle class="st2" cx="371.5" cy="110.5" r="9"/>
			<circle class="st3" cx="371.5" cy="108.5" r="9"/>
			<circle class="st4" cx="369.5" cy="108.5" r="1"/>
		</g>
		<g>
			<path class="st7" d="M240.5,122.4V135h-2.8v-4.5h-4.2v4.5h-2.8v-12.6c0-0.8,0.6-1.4,1.4-1.4h7
				C239.9,120.9,240.5,121.6,240.5,122.4C240.5,122.3,240.5,122.3,240.5,122.4z M237.7,128.2v-4.4l0,0h-4.2l0,0v4.4H237.7z"/>
			<path class="st7" d="M243.3,121h8.4c0.8,0,1.4,0.6,1.4,1.4l0,0v6l-2,0.9v0.3l2,0.9v4.6h-2.8v-4.4l0,0h-4.2v4.4h-2.8L243.3,121
				L243.3,121z M250.3,128.2L250.3,128.2v-4.4l0,0h-4.2v4.5L250.3,128.2z"/>
			<path class="st7" d="M264.3,123.8h-2.8V135h-2.8v-11.2h-2.8V121h8.4L264.3,123.8z"/>
		</g>
	</g>
</g>
<rect x="400" class="st1" width="200" height="200"/>
<g>
	<g>
		<circle class="st2" cx="588" cy="110.5" r="9"/>
		<circle class="st3" cx="588" cy="108.5" r="9"/>
		<circle class="st4" cx="591" cy="108.5" r="1"/>
	</g>
	<ellipse class="st0" cx="495" cy="145" rx="89" ry="3.1"/>
	<g>
		<polyline class="st5" points="420.5,127 465,127 500.1,127 573.5,127 		"/>
		<polyline class="st6" points="420.5,127 465,127 500.1,127 573.5,127 		"/>
	</g>
	<g>
		<path class="st7" d="M505,122.4c0-0.8,0.6-1.4,1.4-1.4h4.2c0.4,0,0.7,0.2,1,0.4l3.2,3.2c0.3,0.3,0.4,0.6,0.4,1v4.8
			c0,0.4-0.2,0.7-0.4,1l-3.2,3.2c-0.3,0.3-0.6,0.4-1,0.4h-4.2c-0.8,0-1.4-0.6-1.4-1.4L505,122.4L505,122.4z M507.8,132.2h2.2
			l2.4-2.4v-3.6l-2.4-2.4h-2.2l0,0L507.8,132.2L507.8,132.2z"/>
		<path class="st7" d="M520.8,123.8v3h4.2v2.4h-4.2v3h5.6v2.8H518v-14h8.4v2.8H520.8z"/>
		<path class="st7" d="M529.2,132.2h5.6l0,0v-2.9l0,0h-4.2c-0.8,0-1.4-0.6-1.4-1.4v-5.4c0-0.8,0.6-1.4,1.4-1.4l0,0h7v2.8H532l0,0
			v2.9l0,0h4.2c0.8,0,1.4,0.6,1.4,1.4v5.4c0,0.8-0.6,1.4-1.4,1.4h-7V132.2z"/>
		<path class="st7" d="M540.4,121h2.8v14h-2.8V121z"/>
		<path class="st7" d="M546,133.6v-11.2c0-0.8,0.6-1.4,1.4-1.4l0,0h7.7v2.8h-6.3l0,0v8.4l0,0h4.2l0,0v-1l-2.3-2.3l1.9-1.9l2.8,2.8
			c0.3,0.3,0.4,0.6,0.4,1v2.8c0,0.8-0.6,1.4-1.4,1.4h-7C546.6,135,546,134.3,546,133.6z"/>
		<path class="st7" d="M558.6,121h3.3l3.3,8.9h0.2V121h2.6v14h-3.3l-3.3-8.9h-0.2v8.9h-2.6V121z"/>
	</g>
	<g>
		<circle class="st2" cx="575" cy="110.5" r="9"/>
		<circle class="st3" cx="575" cy="108.5" r="9"/>
		<circle class="st4" cx="573" cy="108.5" r="1"/>
	</g>
	<g>
		<path class="st7" d="M430.5,122.4V135h-2.8v-4.5h-4.2v4.5h-2.8v-12.6c0-0.8,0.6-1.4,1.4-1.4h7
			C429.9,120.9,430.5,121.6,430.5,122.4C430.5,122.3,430.5,122.3,430.5,122.4z M427.7,128.2v-4.4l0,0h-4.2l0,0v4.4H427.7z"/>
		<path class="st7" d="M433.3,121h8.4c0.8,0,1.4,0.6,1.4,1.4l0,0v6l-2,0.9v0.3l2,0.9v4.6h-2.8v-4.4l0,0h-4.2v4.4h-2.8V121z
			 M440.3,128.2L440.3,128.2v-4.4l0,0h-4.2v4.5L440.3,128.2z"/>
		<path class="st7" d="M454.3,123.8h-2.8V135h-2.8v-11.2h-2.8V121h8.4L454.3,123.8z"/>
	</g>
</g>
<ellipse class="st0" cx="695" cy="145" rx="90" ry="3.1"/>
<g>
	<rect x="600" class="st1" width="200" height="200"/>
	<g>
		<g>
			<circle class="st2" cx="789" cy="110.5" r="9"/>
			<circle class="st3" cx="789" cy="108.5" r="9"/>
			<circle class="st4" cx="792" cy="108.5" r="1"/>
		</g>
		<g>
			<polyline class="st5" points="619.5,127 665,127 700.1,127 774.5,127 			"/>
			<polyline class="st6" points="619.5,127 665,127 700.1,127 774.5,127 			"/>
		</g>
		<g>
			<path class="st7" d="M706,122.4c0-0.8,0.6-1.4,1.4-1.4h4.2c0.4,0,0.7,0.2,1,0.4l3.2,3.2c0.3,0.3,0.4,0.6,0.4,1v4.8
				c0,0.4-0.2,0.7-0.4,1l-3.2,3.2c-0.3,0.3-0.6,0.4-1,0.4h-4.2c-0.8,0-1.4-0.6-1.4-1.4V122.4z M708.8,132.2h2.2l2.4-2.4v-3.6
				l-2.4-2.4h-2.2l0,0V132.2L708.8,132.2z"/>
			<path class="st7" d="M721.8,123.8v3h4.2v2.4h-4.2v3h5.6v2.8H719v-14h8.4v2.8H721.8z"/>
			<path class="st7" d="M730.2,132.2h5.6l0,0v-2.9l0,0h-4.2c-0.8,0-1.4-0.6-1.4-1.4v-5.4c0-0.8,0.6-1.4,1.4-1.4l0,0h7v2.8H733l0,0
				v2.9l0,0h4.2c0.8,0,1.4,0.6,1.4,1.4v5.4c0,0.8-0.6,1.4-1.4,1.4h-7V132.2z"/>
			<path class="st7" d="M741.4,121h2.8v14h-2.8V121z"/>
			<path class="st7" d="M747,133.6v-11.2c0-0.8,0.6-1.4,1.4-1.4l0,0h7.7v2.8h-6.3l0,0v8.4l0,0h4.2l0,0v-1l-2.3-2.3l1.9-1.9l2.8,2.8
				c0.3,0.3,0.4,0.6,0.4,1v2.8c0,0.8-0.6,1.4-1.4,1.4h-7C747.6,135,747,134.3,747,133.6z"/>
			<path class="st7" d="M759.6,121h3.3l3.3,8.9h0.2V121h2.6v14h-3.3l-3.3-8.9h-0.2v8.9h-2.6V121z"/>
		</g>
		<g>
			<circle class="st2" cx="776" cy="110.5" r="9"/>
			<circle class="st3" cx="776" cy="108.5" r="9"/>
			<circle class="st4" cx="774" cy="108.5" r="1"/>
		</g>
		<g>
			<path class="st7" d="M629.5,122.4V135h-2.8v-4.5h-4.2v4.5h-2.8v-12.6c0-0.8,0.6-1.4,1.4-1.4l0,0h7
				C628.9,120.9,629.5,121.6,629.5,122.4C629.5,122.3,629.5,122.3,629.5,122.4z M626.7,128.2v-4.4l0,0h-4.2l0,0v4.4H626.7z"/>
			<path class="st7" d="M632.3,121h8.4c0.8,0,1.4,0.6,1.4,1.4l0,0v6l-2,0.9v0.3l2,0.9v4.6h-2.8v-4.4l0,0h-4.2v4.4h-2.8L632.3,121
				L632.3,121z M639.3,128.2L639.3,128.2v-4.4l0,0h-4.2v4.5L639.3,128.2z"/>
			<path class="st7" d="M653.3,123.8h-2.8V135h-2.8v-11.2h-2.8V121h8.4L653.3,123.8z"/>
		</g>
	</g>
</g>
<g>
	<ellipse class="st0" cx="895" cy="145" rx="81" ry="3.1"/>
	<rect x="800" class="st1" width="200" height="200"/>
	<g>
		<g>
			<circle class="st2" cx="984" cy="110.5" r="9"/>
			<circle class="st3" cx="984" cy="108.5" r="9"/>
			<circle class="st4" cx="987" cy="108.5" r="1"/>
		</g>
		<g>
			<path class="st5" d="M829.5,127h29.7c3.8,0,7.5-0.9,10.8-2.7l2-1.1c7.1-3.8,15.7-3.6,22.6,0.5l0,0c3.6,2.1,7.6,3.3,11.8,3.3h63"
				/>
			<path class="st6" d="M829.5,127h29.7c3.8,0,7.5-0.9,10.8-2.7l2-1.1c7.1-3.8,15.7-3.6,22.6,0.5l0,0c3.6,2.1,7.6,3.3,11.8,3.3h63"
				/>
		</g>
		<g>
			<path class="st7" d="M901,122.4c0-0.8,0.6-1.4,1.4-1.4h4.2c0.4,0,0.7,0.2,1,0.4l3.2,3.2c0.3,0.3,0.4,0.6,0.4,1v4.8
				c0,0.4-0.2,0.7-0.4,1l-3.2,3.2c-0.3,0.3-0.6,0.4-1,0.4h-4.2c-0.8,0-1.4-0.6-1.4-1.4V122.4z M903.8,132.2h2.2l2.4-2.4v-3.6
				l-2.4-2.4h-2.2l0,0V132.2L903.8,132.2z"/>
			<path class="st7" d="M916.8,123.8v3h4.2v2.4h-4.2v3h5.6v2.8H914v-14h8.4v2.8H916.8z"/>
			<path class="st7" d="M925.2,132.2h5.6l0,0v-2.9l0,0h-4.2c-0.8,0-1.4-0.6-1.4-1.4v-5.4c0-0.8,0.6-1.4,1.4-1.4l0,0h7v2.8H928l0,0
				v2.9l0,0h4.2c0.8,0,1.4,0.6,1.4,1.4v5.4c0,0.8-0.6,1.4-1.4,1.4h-7V132.2z"/>
			<path class="st7" d="M936.4,121h2.8v14h-2.8V121z"/>
			<path class="st7" d="M942,133.6v-11.2c0-0.8,0.6-1.4,1.4-1.4l0,0h7.7v2.8h-6.3l0,0v8.4l0,0h4.2l0,0v-1l-2.3-2.3l1.9-1.9l2.8,2.8
				c0.3,0.3,0.4,0.6,0.4,1v2.8c0,0.8-0.6,1.4-1.4,1.4h-7C942.6,135,942,134.3,942,133.6z"/>
			<path class="st7" d="M954.6,121h3.3l3.3,8.9h0.2V121h2.6v14h-3.3l-3.3-8.9h-0.2v8.9h-2.6V121z"/>
		</g>
		<g>
			<circle class="st2" cx="971" cy="110.5" r="9"/>
			<circle class="st3" cx="971" cy="108.5" r="9"/>
			<circle class="st4" cx="969" cy="108.5" r="1"/>
		</g>
		<g>
			<path class="st7" d="M839.5,122.4V135h-2.8v-4.5h-4.2v4.5h-2.8v-12.6c0-0.8,0.6-1.4,1.4-1.4l0,0h7
				C838.9,120.9,839.5,121.6,839.5,122.4C839.5,122.3,839.5,122.3,839.5,122.4z M836.7,128.2v-4.4l0,0h-4.2l0,0v4.4H836.7z"/>
			<path class="st7" d="M842.3,121h8.4c0.8,0,1.4,0.6,1.4,1.4l0,0v6l-2,0.9v0.3l2,0.9v4.6h-2.8v-4.4l0,0h-4.2v4.4h-2.8L842.3,121
				L842.3,121z M849.3,128.2L849.3,128.2v-4.4l0,0h-4.2v4.5L849.3,128.2z"/>
			<path class="st7" d="M863.3,123.8h-2.8V135h-2.8v-11.2h-2.8V121h8.4L863.3,123.8z"/>
		</g>
	</g>
</g>
</svg>
