<?xml version="1.0" encoding="utf-8"?>
<!-- Generator: Adobe Illustrator 23.0.2, SVG Export Plug-In . SVG Version: 6.00 Build 0)  -->
<svg version="1.1" id="Layer_1" xmlns="http://www.w3.org/2000/svg" xmlns:xlink="http://www.w3.org/1999/xlink" x="0px" y="0px"
	 width="640px" height="160px" viewBox="0 0 640 160" style="enable-background:new 0 0 640 160;" xml:space="preserve">
<style type="text/css">
	.st0{fill:none;}
	.st1{fill:#000001;stroke:#000001;stroke-width:3;stroke-linecap:round;}
	.st2{fill:none;stroke:#000001;stroke-width:3;stroke-linecap:round;stroke-linejoin:round;}
	.st3{fill:#000001;stroke:#000001;stroke-width:3;stroke-linecap:round;stroke-linejoin:round;}
	.st4{fill:#F8F8F8;}
	.st5{fill:#F8F8F8;stroke:#000001;stroke-width:3;stroke-linecap:round;stroke-linejoin:round;}
	.st6{fill:#000001;stroke:#000001;stroke-width:3;}
</style>
<title>perfection-walking</title>
<g>
	<rect class="st0" width="160" height="160"/>
	<g>
		<ellipse class="st1" cx="80.5" cy="124" rx="74.5" ry="3.1"/>
		<path class="st2" d="M28.5,105c9.4,0,17,7.6,17,17"/>
		<path class="st2" d="M30.5,105c0,9.4-7.6,17-17,17"/>
		<path class="st2" d="M101.5,105c9.4,0,17,7.6,17,17"/>
		<path class="st2" d="M103.5,105c0,9.4-7.6,17-17,17"/>
		<polygon class="st3" points="155,108.5 5,108.5 5,43.5 70.8,43.5 71,64.5 155,64.5 		"/>
		<g>
			<path class="st4" d="M24.6,80H33c0.8,0,1.4,0.6,1.4,1.4l0,0v7c0,0.8-0.6,1.4-1.4,1.4h-5.6V94h-2.8V80z M31.6,87.4L31.6,87.4
				l0-4.6l0,0h-4.2v4.6L31.6,87.4z"/>
			<path class="st4" d="M40,82.8v3h4.2v2.4H40v3h5.6V94h-8.4V80h8.4v2.8L40,82.8z"/>
			<path class="st4" d="M48.4,80h8.4c0.8,0,1.4,0.6,1.4,1.4c0,0,0,0,0,0v6l-2,0.9v0.3l2,0.9V94h-2.8v-4.4l0,0h-4.2V94h-2.8V80z
				 M55.4,87.2L55.4,87.2l0-4.4l0,0h-4.2v4.5L55.4,87.2z"/>
			<path class="st4" d="M63.8,82.8V87H68v2.6h-4.2V94H61V80h8.4v2.8L63.8,82.8z"/>
			<path class="st4" d="M75,82.8v3h4.2v2.4H75v3h5.6V94h-8.4V80h8.4v2.8L75,82.8z"/>
			<path class="st4" d="M83.4,92.6V81.4c0-0.8,0.6-1.4,1.4-1.4l0,0l7,0v2.8h-5.6l0,0v8.4l0,0h5.6V94h-7C84,94,83.4,93.3,83.4,92.6z"
				/>
			<path class="st4" d="M103,82.8h-2.8V94h-2.8V82.8h-2.8V80h8.4V82.8z"/>
			<path class="st4" d="M105.8,80h2.8v14h-2.8V80z"/>
			<path class="st4" d="M111.4,92.6V81.4c0-0.8,0.6-1.4,1.4-1.4l0,0h7c0.8,0,1.4,0.6,1.4,1.4l0,0v11.2c0,0.8-0.6,1.4-1.4,1.4h-7
				C112,94,111.4,93.3,111.4,92.6z M118.4,91.2L118.4,91.2l0-8.4l0,0h-4.2l0,0v8.4l0,0L118.4,91.2z"/>
			<path class="st4" d="M124,80h3.3l3.3,8.9h0.2V80h2.6v14h-3.3l-3.3-8.9h-0.2V94H124V80z"/>
		</g>
		<g>
			<circle class="st3" cx="100.5" cy="66.5" r="9"/>
			<circle class="st3" cx="118.5" cy="66.5" r="9"/>
			<circle class="st5" cx="100.5" cy="64.5" r="9"/>
			<circle class="st5" cx="118.5" cy="64.5" r="9"/>
			<circle class="st6" cx="94.5" cy="64.5" r="1"/>
			<circle class="st6" cx="112.5" cy="64.5" r="1"/>
		</g>
	</g>
</g>
<g>
	<rect x="160" class="st0" width="160" height="160"/>
	<g>
		<ellipse class="st1" cx="240.5" cy="124" rx="74.5" ry="3.1"/>
		<path class="st2" d="M188.4,105.5c10.3,0,18.7,7.6,18.7,17"/>
		<path class="st2" d="M190.6,105.5c0,9.4-8.4,17-18.7,17"/>
		<path class="st2" d="M261.4,105.5c10.1,0,18.3,7.6,18.3,17"/>
		<path class="st2" d="M263.6,105.5c0,9.4-8.2,17-18.3,17"/>
		<polygon class="st3" points="315,109.5 165,109.5 165,44.5 230.8,44.5 231,65.5 315,65.5 		"/>
		<g>
			<path class="st4" d="M184.6,81h8.4c0.8,0,1.4,0.6,1.4,1.4v7c0,0.8-0.6,1.4-1.4,1.4h-5.6V95h-2.8L184.6,81z M191.6,88.4
				L191.6,88.4l0-4.6l0,0h-4.2v4.6L191.6,88.4z"/>
			<path class="st4" d="M200,83.8v3h4.2v2.4H200v3h5.6V95h-8.4V81h8.4v2.8L200,83.8z"/>
			<path class="st4" d="M208.4,81h8.4c0.8,0,1.4,0.6,1.4,1.4c0,0,0,0,0,0v6l-2,0.9v0.3l2,0.9V95h-2.8v-4.4l0,0h-4.2V95h-2.8V81z
				 M215.4,88.2L215.4,88.2l0-4.4l0,0h-4.2v4.5L215.4,88.2z"/>
			<path class="st4" d="M223.8,83.8V88h4.2v2.6h-4.2V95H221V81h8.4v2.8L223.8,83.8z"/>
			<path class="st4" d="M235,83.8v3h4.2v2.4H235v3h5.6V95h-8.4V81h8.4v2.8L235,83.8z"/>
			<path class="st4" d="M243.4,93.6V82.4c0-0.8,0.6-1.4,1.4-1.4l7,0v2.8h-5.6l0,0v8.4l0,0h5.6V95h-7C244,95,243.4,94.3,243.4,93.6z"
				/>
			<path class="st4" d="M263,83.8h-2.8V95h-2.8V83.8h-2.8V81h8.4V83.8z"/>
			<path class="st4" d="M265.8,81h2.8v14h-2.8V81z"/>
			<path class="st4" d="M271.4,93.6V82.4c0-0.8,0.6-1.4,1.4-1.4h7c0.8,0,1.4,0.6,1.4,1.4v11.2c0,0.8-0.6,1.4-1.4,1.4h-7
				C272,95,271.4,94.3,271.4,93.6z M278.4,92.2L278.4,92.2l0-8.4l0,0h-4.2l0,0v8.4l0,0L278.4,92.2z"/>
			<path class="st4" d="M284,81h3.3l3.3,8.9h0.2V81h2.6v14h-3.3l-3.3-8.9h-0.2V95H284V81z"/>
		</g>
		<g>
			<circle class="st3" cx="260.5" cy="67.5" r="9"/>
			<circle class="st3" cx="278.5" cy="67.5" r="9"/>
			<circle class="st5" cx="260.5" cy="65.5" r="9"/>
			<circle class="st5" cx="278.5" cy="65.5" r="9"/>
			<circle class="st6" cx="254.5" cy="64.5" r="1"/>
			<circle class="st6" cx="272.5" cy="64.5" r="1"/>
		</g>
	</g>
</g>
<g>
	<rect x="320" class="st0" width="160" height="160"/>
	<g>
		<ellipse class="st1" cx="400.5" cy="124.1" rx="75.5" ry="3"/>
		<path class="st2" d="M347.8,112.8c9.5,0,17.2,4.6,17.2,10.3"/>
		<path class="st2" d="M349.8,112.8c0,5.7-7.7,10.3-17.2,10.3"/>
		<path class="st2" d="M421.8,112.8c9.5,0,17.2,4.6,17.2,10.3"/>
		<path class="st2" d="M423.8,112.8c0,5.7-7.7,10.3-17.2,10.3"/>
		<polygon class="st3" points="477,116.3 325.1,112.1 327,48.3 393.6,50.2 393.2,70.8 478.3,73.1 		"/>
		<g>
			<path class="st4" d="M345.7,84.6l8.5,0.2c0.8,0,1.4,0.6,1.4,1.4l-0.2,6.9c0,0.8-0.7,1.4-1.5,1.3l-5.7-0.2l-0.1,4.1l-2.8-0.1
				L345.7,84.6z M352.6,92.1L352.6,92.1l0.2-4.5l0,0l-4.2-0.1l-0.1,4.5L352.6,92.1z"/>
			<path class="st4" d="M361.3,87.8l-0.1,2.9l4.3,0.1l-0.1,2.4l-4.3-0.1l-0.1,2.9l5.7,0.2l-0.1,2.7l-8.5-0.2l0.4-13.7l8.5,0.2
				l-0.1,2.7L361.3,87.8z"/>
			<path class="st4" d="M369.9,85.3l8.5,0.2c0.8,0,1.4,0.6,1.4,1.4c0,0,0,0,0,0l-0.2,5.9l-2.1,0.8l0,0.3l2,0.9l-0.1,4.5l-2.8-0.1
				l0.1-4.3l0,0l-4.2-0.1l-0.1,4.4l-2.8-0.1L369.9,85.3z M376.7,92.6L376.7,92.6l0.1-4.4l0,0l-4.2-0.1l-0.1,4.4L376.7,92.6z"/>
			<path class="st4" d="M385.4,88.5l-0.1,4.2l4.3,0.1l-0.1,2.6l-4.3-0.1l-0.1,4.2l-2.8-0.1l0.4-13.7l8.5,0.2l-0.1,2.7L385.4,88.5z"
				/>
			<path class="st4" d="M396.7,88.8l-0.1,2.9l4.3,0.1l-0.1,2.4l-4.3-0.1l-0.1,2.9l5.7,0.2l-0.1,2.7l-8.5-0.2L394,86l8.5,0.2
				l-0.1,2.7L396.7,88.8z"/>
			<path class="st4" d="M404.9,98.6l0.3-11c0-0.8,0.7-1.4,1.5-1.3l7.1,0.2l-0.1,2.7l-5.7-0.2l0,0l-0.2,8.2l0,0l5.7,0.2l-0.1,2.7
				l-7.1-0.2C405.6,100,404.9,99.4,404.9,98.6z"/>
			<path class="st4" d="M425.1,89.6l-2.8-0.1l-0.3,11l-2.8-0.1l0.3-11l-2.8-0.1l0.1-2.7l8.5,0.2L425.1,89.6z"/>
			<path class="st4" d="M428,86.9l2.8,0.1l-0.4,13.7l-2.8-0.1L428,86.9z"/>
			<path class="st4" d="M433.3,99.4l0.3-11c0-0.8,0.7-1.4,1.5-1.3l7.1,0.2c0.8,0,1.4,0.6,1.4,1.4l-0.3,11c0,0.8-0.7,1.4-1.5,1.3
				l-7.1-0.2C433.9,100.8,433.3,100.2,433.3,99.4z M440.4,98.2L440.4,98.2l0.3-8.2l0,0l-4.2-0.1l0,0l-0.2,8.2l0,0L440.4,98.2z"/>
			<path class="st4" d="M446.4,87.4l3.4,0.1l3,8.8l0.2,0l0.3-8.7l2.6,0.1l-0.4,13.7l-3.4-0.1l-3-8.8l-0.2,0l-0.3,8.7l-2.6-0.1
				L446.4,87.4z"/>
		</g>
		<g>
			<ellipse class="st3" cx="423" cy="73.6" rx="9.1" ry="8.8"/>
			<ellipse class="st3" cx="441.3" cy="74.1" rx="9.1" ry="8.8"/>
			<ellipse class="st5" cx="423.1" cy="71.6" rx="9.1" ry="8.8"/>
			<ellipse class="st5" cx="441.3" cy="72.1" rx="9.1" ry="8.8"/>
			<ellipse class="st6" cx="417" cy="68.5" rx="1" ry="1"/>
			<ellipse class="st6" cx="435.3" cy="69" rx="1" ry="1"/>
		</g>
	</g>
</g>
<g>
	<rect x="480" class="st0" width="160" height="160"/>
	<g>
		<ellipse class="st1" cx="560.5" cy="123.9" rx="72.7" ry="3.1"/>
		<path class="st2" d="M509.8,104.5c7,5.3,7.9,14.7,2,21"/>
		<path class="st2" d="M509.8,104.5c3.9,7.5,0.3,16.3-8,19.8"/>
		<path class="st2" d="M584.9,104.5c7,5.3,7.9,14.7,2,21"/>
		<path class="st2" d="M584.9,104.5c3.9,7.5,0.3,16.3-8,19.8"/>
		<polygon class="st3" points="634.2,110.8 487.9,106.4 489.8,40 553.9,42 553.5,63.4 635.5,65.9 		"/>
		<g>
			<path class="st4" d="M507.8,77.8l8.2,0.2c0.8,0,1.4,0.7,1.3,1.5l-0.2,7.1c0,0.8-0.6,1.4-1.4,1.4l-5.5-0.2l-0.1,4.3l-2.7-0.1
				L507.8,77.8z M514.4,85.6L514.4,85.6l0.1-4.7l0,0l-4.1-0.1l-0.1,4.7L514.4,85.6z"/>
			<path class="st4" d="M522.8,81.1l-0.1,3l4.1,0.1l-0.1,2.5l-4.1-0.1l-0.1,3l5.5,0.2l-0.1,2.9l-8.2-0.2l0.4-14.3l8.2,0.2l-0.1,2.9
				L522.8,81.1z"/>
			<path class="st4" d="M531,78.5l8.2,0.2c0.8,0,1.4,0.7,1.3,1.4c0,0,0,0,0,0l-0.2,6.1l-2,0.8l0,0.3l2,0.9l-0.1,4.7l-2.7-0.1
				l0.1-4.5l0,0l-4.1-0.1l-0.1,4.5l-2.7-0.1L531,78.5z M537.6,86.1L537.6,86.1l0.1-4.5l0,0l-4.1-0.1l-0.1,4.6L537.6,86.1z"/>
			<path class="st4" d="M546,81.8l-0.1,4.4l4.1,0.1l-0.1,2.7l-4.1-0.1l-0.1,4.4l-2.7-0.1l0.4-14.3l8.2,0.2l-0.1,2.9L546,81.8z"/>
			<path class="st4" d="M556.9,82.1l-0.1,3l4.1,0.1l-0.1,2.5l-4.1-0.1l-0.1,3l5.5,0.2l-0.1,2.9l-8.2-0.2l0.4-14.3l8.2,0.2l-0.1,2.9
				L556.9,82.1z"/>
			<path class="st4" d="M564.8,92.4l0.3-11.4c0-0.8,0.6-1.4,1.4-1.4l6.8,0.2l-0.1,2.8l-5.4-0.2l0,0l-0.2,8.5l0,0l5.4,0.2l-0.1,2.9
				l-6.8-0.2C565.4,93.8,564.8,93.2,564.8,92.4z"/>
			<path class="st4" d="M584.2,82.9l-2.7-0.1l-0.3,11.4l-2.7-0.1l0.3-11.4l-2.7-0.1l0.1-2.9l8.2,0.2L584.2,82.9z"/>
			<path class="st4" d="M587,80.2l2.7,0.1l-0.4,14.3l-2.7-0.1L587,80.2z"/>
			<path class="st4" d="M592.1,93.2l0.3-11.4c0-0.8,0.6-1.4,1.4-1.4l6.8,0.2c0.8,0,1.4,0.7,1.3,1.5l-0.3,11.4c0,0.8-0.6,1.4-1.4,1.4
				l-6.8-0.2C592.7,94.6,592.1,94,592.1,93.2z M599,92L599,92l0.3-8.6l0,0l-4.1-0.1l0,0l-0.2,8.5l0,0L599,92z"/>
			<path class="st4" d="M604.8,80.7l3.3,0.1L611,90l0.2,0l0.2-9.1l2.5,0.1l-0.4,14.3l-3.3-0.1l-2.9-9.2l-0.2,0l-0.2,9.1l-2.5-0.1
				L604.8,80.7z"/>
		</g>
		<g>
			<ellipse class="st3" cx="582.2" cy="66.3" rx="8.8" ry="9.2"/>
			<ellipse class="st3" cx="599.8" cy="66.8" rx="8.8" ry="9.2"/>
			<ellipse class="st5" cx="582.3" cy="64.3" rx="8.8" ry="9.2"/>
			<ellipse class="st5" cx="599.9" cy="64.8" rx="8.8" ry="9.2"/>
			<ellipse class="st6" cx="576.5" cy="66.1" rx="1" ry="1"/>
			<ellipse class="st6" cx="594" cy="66.7" rx="1" ry="1"/>
		</g>
	</g>
</g>
</svg>
